<svg width="81" height="82" viewBox="0 0 81 82" fill="none" xmlns="http://www.w3.org/2000/svg">
<path d="M76.2381 57.2742L81 52.5323L68.415 40L48.6871 59.6452C46.9864 58.629 44.9456 58.2903 42.9048 58.2903C36.4422 58.2903 31 63.7097 31 70.1452C31 76.5806 36.4422 82 42.9048 82C49.3673 82 54.8095 76.5806 54.8095 70.1452C54.8095 68.1129 54.1293 66.0806 53.449 64.3871L59.9116 57.9516L67.7347 65.7419L72.4966 61L64.6735 53.2097L68.415 49.4839L76.2381 57.2742ZM42.9048 75.2258C40.1837 75.2258 37.8027 72.8548 37.8027 70.1452C37.8027 67.4355 40.1837 65.0645 42.9048 65.0645C45.6259 65.0645 48.0068 67.4355 48.0068 70.1452C48.0068 72.8548 45.6259 75.2258 42.9048 75.2258Z" fill="black"/>
<path d="M6.83544 64.9167C6.83544 51.5917 17.4304 41 30.7595 41C37.5949 41 44.0886 44.075 48.8734 49.2L54 44.7583C50.9241 41.3417 47.5063 38.6083 43.4051 36.9C48.1899 33.1417 51.2658 26.9917 51.2658 20.5C51.2658 9.225 42.038 0 30.7595 0C19.481 0 10.2532 9.225 10.2532 20.5C10.2532 26.9917 13.3291 33.1417 18.4557 36.9C7.51899 41.6833 0 52.275 0 64.9167V82H27.3418V75.1667H6.83544V64.9167ZM17.0886 20.5C17.0886 12.9833 23.2405 6.83333 30.7595 6.83333C38.2785 6.83333 44.4304 12.9833 44.4304 20.5C44.4304 28.0167 38.2785 34.1667 30.7595 34.1667C23.2405 34.1667 17.0886 28.0167 17.0886 20.5Z" fill="black"/>
</svg>
