<svg width="133" height="137" viewBox="0 0 133 137" fill="none" xmlns="http://www.w3.org/2000/svg">
<path d="M99.6568 137H33.3432C15.6258 137 4.36259 126.359 3.35017 108.58L0.0598008 56.0107C-0.44641 48.0456 2.27447 40.3991 7.71624 34.6005C13.0947 28.8019 20.6879 25.4884 28.5342 25.4884C30.559 25.4884 32.5206 24.2777 33.4697 22.366L38.0256 13.254C41.7589 5.7986 51.1238 0 59.2865 0H73.7768C81.9394 0 91.2411 5.7986 94.9744 13.1902L99.5303 22.4935C100.479 24.2777 102.378 25.4884 104.466 25.4884C112.312 25.4884 119.905 28.8019 125.284 34.6005C130.726 40.4628 133.446 48.0456 132.94 56.0107L129.65 108.644C128.511 126.677 117.564 137 99.6568 137ZM59.2865 9.55814C54.604 9.55814 48.6561 13.254 46.5047 17.5233L41.9488 26.6991C39.2912 31.8605 34.1658 35.0465 28.5342 35.0465C23.219 35.0465 18.2834 37.213 14.6134 41.1C11.0066 44.987 9.1716 50.0847 9.55126 55.3735L12.8416 108.007C13.6009 120.879 20.4981 127.442 33.3432 127.442H99.6568C112.439 127.442 119.336 120.879 120.158 108.007L123.449 55.3735C123.765 50.0847 121.993 44.987 118.387 41.1C114.717 37.213 109.781 35.0465 104.466 35.0465C98.8342 35.0465 93.7088 31.8605 91.0512 26.8265L86.4321 17.5233C84.3439 13.3177 78.396 9.62186 73.7135 9.62186H59.2865V9.55814Z" fill="#292D32"/>
<path d="M75.9914 47.7907H57.0085C54.4142 47.7907 52.2628 45.6242 52.2628 43.0116C52.2628 40.3991 54.4142 38.2326 57.0085 38.2326H75.9914C78.5857 38.2326 80.7371 40.3991 80.7371 43.0116C80.7371 45.6242 78.5857 47.7907 75.9914 47.7907Z" fill="#292D32"/>
<path d="M66.5001 111.512C52.516 111.512 41.1895 100.106 41.1895 86.0232C41.1895 71.9409 52.516 60.5348 66.5001 60.5348C80.4841 60.5348 91.8106 71.9409 91.8106 86.0232C91.8106 100.106 80.4841 111.512 66.5001 111.512ZM66.5001 70.093C57.7679 70.093 50.681 77.2297 50.681 86.0232C50.681 94.8167 57.7679 101.953 66.5001 101.953C75.2322 101.953 82.3191 94.8167 82.3191 86.0232C82.3191 77.2297 75.2322 70.093 66.5001 70.093Z" fill="#292D32"/>
</svg>
