<svg width="134" height="127" viewBox="0 0 134 127" fill="none" xmlns="http://www.w3.org/2000/svg">
<path d="M19.1429 9.76923V117.231H76.5714V9.76923H19.1429ZM14.3571 0H81.3571C82.6264 0 83.8437 0.514627 84.7412 1.43067C85.6387 2.34671 86.1429 3.58913 86.1429 4.88462V122.115C86.1429 123.411 85.6387 124.653 84.7412 125.569C83.8437 126.485 82.6264 127 81.3571 127H14.3571C13.0879 127 11.8706 126.485 10.9731 125.569C10.0756 124.653 9.57143 123.411 9.57143 122.115V4.88462C9.57143 3.58913 10.0756 2.34671 10.9731 1.43067C11.8706 0.514627 13.0879 0 14.3571 0Z" fill="black"/>
<path d="M28.7143 29.3077H67V39.0769H28.7143V29.3077ZM28.7143 58.6154H67V68.3846H28.7143V58.6154ZM28.7143 87.9231H67V97.6923H28.7143V87.9231ZM86.1429 68.3846H105.286V78.1538H86.1429V68.3846ZM86.1429 87.9231H105.286V97.6923H86.1429V87.9231ZM0 117.231H134V127H0V117.231Z" fill="black"/>
<path d="M86.1429 48.8462V117.231H114.857V48.8462H86.1429ZM81.3571 39.0769H119.643C120.912 39.0769 122.129 39.5916 123.027 40.5076C123.924 41.4236 124.429 42.6661 124.429 43.9615V122.115C124.429 123.411 123.924 124.653 123.027 125.569C122.129 126.485 120.912 127 119.643 127H81.3571C80.0879 127 78.8706 126.485 77.9731 125.569C77.0756 124.653 76.5714 123.411 76.5714 122.115V43.9615C76.5714 42.6661 77.0756 41.4236 77.9731 40.5076C78.8706 39.5916 80.0879 39.0769 81.3571 39.0769Z" fill="black"/>
</svg>
