<svg width="121" height="169" viewBox="0 0 121 169" fill="none" xmlns="http://www.w3.org/2000/svg">
<path d="M111.838 19.3176H87.0339V4.83522C87.0339 2.1619 84.872 0 82.1987 0H38.798C36.1246 0 33.9627 2.1619 33.9627 4.83522V19.3176H8.76383C3.92861 19.3176 0 23.1532 0 27.8722V39.7046C0 43.9121 3.13824 47.3991 7.22958 48.1197V152.216C7.22958 161.422 14.7381 168.907 23.9901 168.907H96.6113C105.863 168.907 113.372 161.422 113.372 152.216V48.1197C117.486 47.3991 120.601 43.9121 120.601 39.7046V27.8722C120.625 23.1765 116.673 19.3176 111.838 19.3176ZM43.6099 9.67043H77.3867V19.3176H43.6099V9.67043ZM9.62394 28.988H110.954V38.6352H9.62394V28.988ZM103.725 152.24C103.725 156.122 100.54 159.283 96.6113 159.283H23.9901C20.0615 159.283 16.8768 156.122 16.8768 152.24V48.2824H103.725V152.24Z" fill="#DE4927"/>
<path d="M60.3005 144.987C62.9738 144.987 65.1357 142.825 65.1357 140.152V67.786C65.1357 65.1127 62.9738 62.9508 60.3005 62.9508C57.6272 62.9508 55.4653 65.1127 55.4653 67.786V140.175C55.4653 142.825 57.6272 144.987 60.3005 144.987ZM36.1709 144.987C38.8442 144.987 41.0061 142.825 41.0061 140.152V67.786C41.0061 65.1127 38.8442 62.9508 36.1709 62.9508C33.4976 62.9508 31.3357 65.1127 31.3357 67.786V140.175C31.3589 142.825 33.5208 144.987 36.1709 144.987ZM84.4301 145.149C87.1034 145.149 89.2653 142.988 89.2653 140.314V67.9255C89.2653 65.2522 87.1034 63.0903 84.4301 63.0903C81.7568 63.0903 79.5949 65.2522 79.5949 67.9255V140.314C79.5949 142.988 81.7568 145.149 84.4301 145.149Z" fill="#DE4927"/>
</svg>
