<svg width="118" height="119" viewBox="0 0 118 119" fill="none" xmlns="http://www.w3.org/2000/svg">
<path d="M90.7777 119H27.2223C12.1842 119 0 106.644 0 91.4616V50.4033C0 42.8676 4.61023 33.3926 10.5377 28.7382L40.12 5.46633C49.0112 -1.51524 63.226 -1.8477 72.4465 4.6906L106.365 28.6828C112.896 33.2818 118 43.1447 118 51.179V91.517C118 106.644 105.816 119 90.7777 119ZM45.1693 12.0046L15.587 35.2765C11.6902 38.3795 8.23256 45.4164 8.23256 50.4033V91.4616C8.23256 102.045 16.7395 110.689 27.2223 110.689H90.7777C101.26 110.689 109.767 102.1 109.767 91.517V51.179C109.767 45.8597 105.98 38.4903 101.645 35.4982L67.7265 11.5059C61.4698 7.0732 51.1516 7.29484 45.1693 12.0046Z" fill="#272F43"/>
<path fill-rule="evenodd" clip-rule="evenodd" d="M33 67H79V119H33V67ZM41.1176 75.2105V110.789H70.8824V75.2105H41.1176Z" fill="#272F43"/>
</svg>
