<svg width="612" height="267" viewBox="0 0 612 267" fill="none" xmlns="http://www.w3.org/2000/svg">
<path d="M0 53.4777H611.025V210.438H0V53.4777Z" fill="#F29A9A"/>
<path d="M508.855 178.014C504.281 178.014 499.976 177.342 495.94 175.996C491.904 174.561 488.63 172.543 486.118 169.942C483.697 167.341 482.486 164.292 482.486 160.794C482.486 156.488 485.087 154.156 490.289 153.798C491.186 158.82 493.294 162.543 496.612 164.964C500.021 167.296 504.326 168.462 509.528 168.462C514.73 168.462 518.766 167.7 521.636 166.175C524.507 164.65 525.942 162.318 525.942 159.179C525.942 156.937 525.359 155.143 524.193 153.798C523.027 152.363 521.143 151.152 518.542 150.165C516.031 149.089 512.398 148.057 507.644 147.071C501.725 145.725 497.016 144.29 493.518 142.766C490.02 141.241 487.329 139.223 485.446 136.711C483.652 134.2 482.755 130.881 482.755 126.756C482.755 123.258 483.831 120.118 485.984 117.338C488.137 114.468 491.096 112.27 494.863 110.746C498.72 109.131 503.07 108.324 507.914 108.324C512.398 108.324 516.614 108.952 520.56 110.207C524.596 111.463 527.825 113.257 530.247 115.589C532.758 117.921 534.014 120.612 534.014 123.661C534.014 125.724 533.207 127.383 531.592 128.639C529.978 129.805 527.735 130.478 524.865 130.657C524.596 126.711 522.982 123.616 520.022 121.374C517.152 119.042 513.116 117.876 507.914 117.876C503.608 117.876 500.2 118.683 497.689 120.298C495.177 121.912 493.922 124.065 493.922 126.756C493.922 129.626 495.088 131.778 497.42 133.213C499.841 134.559 503.922 135.859 509.663 137.115C519.08 138.999 525.986 141.6 530.381 144.918C534.866 148.147 537.108 152.766 537.108 158.776C537.108 164.875 534.642 169.628 529.709 173.037C524.776 176.355 517.825 178.014 508.855 178.014Z" fill="black"/>
<path d="M462.59 118.683C457.567 118.683 453.397 120.208 450.078 123.258C446.76 126.217 445.1 129.85 445.1 134.155V169.404C445.1 172.364 444.114 174.561 442.14 175.996C440.257 177.342 437.342 178.014 433.396 178.014V118.28C433.396 111.643 437.163 108.324 444.697 108.324V116.531C443.262 118.056 442.275 119.401 441.737 120.567L442.275 121.105C448.015 112.584 455.191 108.324 463.801 108.324C467.03 108.324 469.496 109.131 471.201 110.746C472.905 112.27 473.757 114.154 473.757 116.396C473.757 118.011 473.353 119.446 472.546 120.701C470.035 119.356 466.716 118.683 462.59 118.683Z" fill="black"/>
<path d="M388.798 178.014C383.327 178.014 378.349 176.983 373.865 174.92C369.47 172.857 366.017 170.077 363.505 166.579C361.084 162.991 359.873 159 359.873 154.605V132.541C359.873 128.056 361.084 123.975 363.505 120.298C366.017 116.62 369.47 113.705 373.865 111.553C378.26 109.4 383.238 108.324 388.798 108.324C394.359 108.324 399.337 109.4 403.732 111.553C408.217 113.705 411.67 116.62 414.091 120.298C416.603 123.975 417.859 128.056 417.859 132.541V154.605C417.859 159 416.603 162.991 414.091 166.579C411.58 170.077 408.127 172.857 403.732 174.92C399.337 176.983 394.359 178.014 388.798 178.014ZM388.798 167.924C394.18 167.924 398.44 166.668 401.579 164.157C404.808 161.556 406.423 158.193 406.423 154.067V132.944C406.423 128.639 404.808 125.141 401.579 122.45C398.44 119.76 394.18 118.414 388.798 118.414C383.507 118.414 379.246 119.76 376.017 122.45C372.788 125.141 371.174 128.639 371.174 132.944V154.067C371.174 158.193 372.744 161.556 375.883 164.157C379.112 166.668 383.417 167.924 388.798 167.924Z" fill="black"/>
<path d="M339.952 178.015C333.584 178.015 328.83 176.221 325.691 172.633C322.551 168.956 320.982 164.157 320.982 158.238V118.953H308.47C308.47 115.903 309.143 113.571 310.488 111.957C311.833 110.342 313.672 109.535 316.004 109.535H321.116V96.7539C321.116 93.7941 322.058 91.6415 323.942 90.2961C325.915 88.861 328.83 88.1435 332.687 88.1435V109.535H350.58C350.58 115.813 347.755 118.953 342.104 118.953H332.821V157.834C332.821 161.422 333.449 163.978 334.705 165.503C336.05 166.938 338.427 167.655 341.835 167.655C344.974 167.655 347.934 166.848 350.715 165.234C351.881 166.4 352.464 167.969 352.464 169.942C352.464 172.095 351.343 173.979 349.1 175.593C346.858 177.207 343.808 178.015 339.952 178.015Z" fill="black"/>
<path d="M275.517 178.014C270.942 178.014 266.637 177.342 262.601 175.996C258.565 174.561 255.291 172.543 252.78 169.942C250.358 167.341 249.147 164.292 249.147 160.794C249.147 156.488 251.748 154.156 256.951 153.798C257.847 158.82 259.955 162.543 263.274 164.964C266.682 167.296 270.987 168.462 276.189 168.462C281.392 168.462 285.428 167.7 288.298 166.175C291.168 164.65 292.603 162.318 292.603 159.179C292.603 156.937 292.02 155.143 290.854 153.798C289.688 152.363 287.804 151.152 285.203 150.165C282.692 149.089 279.06 148.057 274.306 147.071C268.386 145.725 263.677 144.29 260.179 142.766C256.681 141.241 253.991 139.223 252.107 136.711C250.313 134.2 249.416 130.881 249.416 126.756C249.416 123.258 250.493 120.118 252.645 117.338C254.798 114.468 257.758 112.27 261.525 110.746C265.382 109.131 269.732 108.324 274.575 108.324C279.06 108.324 283.275 108.952 287.221 110.207C291.258 111.463 294.487 113.257 296.908 115.589C299.42 117.921 300.675 120.612 300.675 123.661C300.675 125.724 299.868 127.383 298.254 128.639C296.639 129.805 294.397 130.478 291.527 130.657C291.258 126.711 289.643 123.616 286.683 121.374C283.813 119.042 279.777 117.876 274.575 117.876C270.27 117.876 266.861 118.683 264.35 120.298C261.839 121.912 260.583 124.065 260.583 126.756C260.583 129.626 261.749 131.778 264.081 133.213C266.503 134.559 270.584 135.859 276.324 137.115C285.742 138.999 292.648 141.6 297.043 144.918C301.527 148.147 303.77 152.766 303.77 158.776C303.77 164.875 301.303 169.628 296.37 173.037C291.437 176.355 284.486 178.014 275.517 178.014Z" fill="black"/>
<path d="M203.734 178.014C196.02 178.014 189.786 175.952 185.033 171.826C180.369 167.7 178.037 162.274 178.037 155.547C178.037 148.73 180.503 143.259 185.436 139.133C190.369 134.918 196.872 132.81 204.944 132.81C213.555 132.81 220.64 135.859 226.201 141.958L226.739 141.42C225.753 140.344 224.632 139.223 223.376 138.057V132.406C223.376 127.832 221.941 124.289 219.071 121.778C216.201 119.266 212.12 118.011 206.828 118.011C197.41 118.011 190.683 121.733 186.647 129.177C185.212 128.46 184.001 127.518 183.015 126.352C182.118 125.096 181.669 123.841 181.669 122.585C181.669 120.163 182.88 117.876 185.302 115.724C187.724 113.481 190.908 111.687 194.854 110.342C198.89 108.997 203.106 108.324 207.501 108.324C216.021 108.324 222.703 110.432 227.547 114.647C232.48 118.863 234.946 124.693 234.946 132.137V169C234.946 172.14 234.049 174.427 232.256 175.862C230.462 177.297 227.636 178.014 223.78 178.014V171.691C225.663 169.718 226.695 168.552 226.874 168.193L226.336 167.655C220.506 174.561 212.972 178.014 203.734 178.014ZM205.752 168.731C211.313 168.731 215.663 167.565 218.802 165.233C222.031 162.901 223.645 159.673 223.645 155.547C223.645 151.421 222.076 148.147 218.936 145.725C215.797 143.304 211.492 142.093 206.021 142.093C200.908 142.093 196.872 143.304 193.912 145.725C191.042 148.057 189.607 151.331 189.607 155.547C189.607 159.762 190.997 163.036 193.778 165.368C196.648 167.61 200.639 168.731 205.752 168.731Z" fill="black"/>
<path d="M71.6941 91.9106C71.6941 88.592 72.8152 86.0358 75.0575 84.2419C77.2998 82.3584 80.3942 81.4166 84.3406 81.4166L116.899 159.583L114.343 165.906L115.284 166.31L149.726 81.4166C153.672 81.4166 156.767 82.3584 159.009 84.2419C161.341 86.1254 162.507 88.7265 162.507 92.0451V178.015C154.166 178.015 149.995 174.562 149.995 167.655V111.015L153.493 101.732L152.417 101.463L122.415 174.382C121.966 175.458 121.249 176.311 120.262 176.938C119.276 177.656 118.244 178.015 117.168 178.015C116.002 178.015 114.926 177.701 113.939 177.073C112.952 176.445 112.235 175.548 111.786 174.382L81.7844 101.328L80.7081 101.732L84.2061 110.88V167.655C84.2061 171.064 83.1298 173.665 80.9772 175.458C78.9143 177.163 75.8199 178.015 71.6941 178.015V91.9106Z" fill="black"/>
<path d="M590.046 267C587.318 267 584.795 266.477 582.478 265.43C580.198 264.347 578.386 262.908 577.04 261.114C575.695 259.283 575.022 257.265 575.022 255.06V238.691C575.022 236.486 575.676 234.487 576.984 232.693C578.33 230.862 580.142 229.423 582.422 228.376C584.739 227.293 587.28 226.751 590.046 226.751C592.811 226.751 595.334 227.293 597.613 228.376C599.93 229.423 601.743 230.862 603.051 232.693C604.396 234.487 605.069 236.486 605.069 238.691V255.06C605.069 257.265 604.396 259.283 603.051 261.114C601.706 262.908 599.874 264.347 597.557 265.43C595.278 266.477 592.774 267 590.046 267ZM590.046 262.291C592.923 262.291 595.259 261.618 597.053 260.273C598.884 258.89 599.8 257.115 599.8 254.948V238.803C599.8 236.636 598.884 234.879 597.053 233.534C595.259 232.151 592.923 231.46 590.046 231.46C587.168 231.46 584.814 232.151 582.982 233.534C581.189 234.879 580.292 236.636 580.292 238.803V254.948C580.292 257.115 581.189 258.89 582.982 260.273C584.814 261.618 587.168 262.291 590.046 262.291Z" fill="#525252"/>
<path d="M565.4 267C564.353 267 563.475 266.663 562.765 265.991C562.055 265.281 561.7 264.402 561.7 263.356C561.7 262.31 562.055 261.431 562.765 260.721C563.475 260.011 564.353 259.656 565.4 259.656C566.409 259.656 567.287 260.03 568.035 260.777C568.782 261.487 569.156 262.347 569.156 263.356C569.156 264.365 568.782 265.225 568.035 265.935C567.287 266.645 566.409 267 565.4 267Z" fill="#525252"/>
<path d="M549.978 231.852H546.671C545.4 231.852 544.41 231.441 543.7 230.619C543.027 229.797 542.691 228.676 542.691 227.255H552.781C553.491 227.255 554.071 227.498 554.519 227.984C555.005 228.433 555.248 228.975 555.248 229.61V262.628C555.248 264.048 554.799 265.132 553.902 265.879C553.005 266.626 551.697 267 549.978 267V231.852Z" fill="#525252"/>
<path d="M263.192 31.6916C260.245 31.6916 257.704 31.0413 255.567 29.7407C253.444 28.4269 251.805 26.5955 250.65 24.2465C249.509 21.8842 248.938 19.1371 248.938 16.0051C248.938 12.8731 249.509 10.1127 250.65 7.72389C251.805 5.32182 253.411 3.45058 255.468 2.1102C257.538 0.75654 259.954 0.0797119 262.714 0.0797119C264.306 0.0797119 265.879 0.345134 267.432 0.875979C268.985 1.40683 270.398 2.26945 271.672 3.46385C272.946 4.64499 273.961 6.21098 274.718 8.16184C275.474 10.1127 275.852 12.5148 275.852 15.3681V17.3588H252.283V13.2978H271.075C271.075 11.5725 270.73 10.0331 270.04 8.67942C269.363 7.32576 268.394 6.25743 267.133 5.47443C265.886 4.69143 264.413 4.29994 262.714 4.29994C260.843 4.29994 259.224 4.76443 257.857 5.69341C256.503 6.60912 255.461 7.80352 254.731 9.27662C254.001 10.7497 253.636 12.329 253.636 14.0144V16.7217C253.636 19.0309 254.035 20.9884 254.831 22.5942C255.64 24.1868 256.762 25.4011 258.195 26.2372C259.628 27.06 261.294 27.4714 263.192 27.4714C264.426 27.4714 265.541 27.2988 266.536 26.9538C267.545 26.5955 268.414 26.0646 269.144 25.3613C269.874 24.6446 270.438 23.7554 270.836 22.6938L275.375 23.9678C274.897 25.5072 274.094 26.8609 272.966 28.0288C271.838 29.1833 270.444 30.0858 268.785 30.7361C267.127 31.3731 265.262 31.6916 263.192 31.6916Z" fill="#525252"/>
<path d="M231.48 31.6916C228.614 31.6916 226.145 31.0148 224.075 29.6611C222.005 28.3074 220.412 26.4429 219.297 24.0673C218.183 21.6918 217.625 18.9778 217.625 15.9255C217.625 12.82 218.196 10.0795 219.337 7.70399C220.492 5.31518 222.098 3.45058 224.155 2.1102C226.225 0.75654 228.64 0.0797119 231.401 0.0797119C233.551 0.0797119 235.488 0.477846 237.213 1.27411C238.939 2.07038 240.352 3.18516 241.454 4.61844C242.555 6.05173 243.239 7.72389 243.504 9.63494H238.806C238.448 8.24147 237.651 7.00725 236.417 5.93229C235.196 4.84405 233.551 4.29994 231.48 4.29994C229.649 4.29994 228.043 4.7777 226.663 5.73322C225.296 6.67547 224.228 8.00922 223.458 9.73447C222.701 11.4465 222.323 13.457 222.323 15.7662C222.323 18.1285 222.695 20.1855 223.438 21.9373C224.194 23.6891 225.256 25.0494 226.623 26.0182C228.003 26.987 229.622 27.4714 231.48 27.4714C232.701 27.4714 233.809 27.259 234.805 26.8344C235.8 26.4097 236.643 25.7992 237.333 25.0029C238.023 24.2067 238.514 23.2511 238.806 22.1364H243.504C243.239 23.9412 242.582 25.567 241.533 27.0135C240.498 28.4468 239.125 29.5881 237.413 30.4375C235.714 31.2736 233.736 31.6916 231.48 31.6916Z" fill="#525252"/>
<path d="M199.132 31.0545V0.477763H203.671V5.09612H203.99C204.547 3.58321 205.556 2.35563 207.015 1.41338C208.475 0.471125 210.121 0 211.952 0C212.297 0 212.729 0.00663444 213.246 0.019906C213.764 0.0331776 214.155 0.0530862 214.421 0.0796293V4.85724C214.261 4.81743 213.896 4.75771 213.326 4.67808C212.768 4.58518 212.178 4.53873 211.554 4.53873C210.068 4.53873 208.741 4.85061 207.573 5.47435C206.418 6.08482 205.502 6.93418 204.826 8.02241C204.162 9.09738 203.83 10.325 203.83 11.7052V31.0545H199.132Z" fill="#525252"/>
<path d="M179.325 31.6916C176.379 31.6916 173.837 31.0413 171.7 29.7407C169.577 28.4269 167.938 26.5955 166.784 24.2465C165.642 21.8842 165.072 19.1371 165.072 16.0051C165.072 12.8731 165.642 10.1127 166.784 7.72389C167.938 5.32182 169.544 3.45058 171.601 2.1102C173.671 0.75654 176.087 0.0797119 178.847 0.0797119C180.44 0.0797119 182.012 0.345134 183.565 0.875979C185.118 1.40683 186.531 2.26945 187.805 3.46385C189.079 4.64499 190.094 6.21098 190.851 8.16184C191.607 10.1127 191.985 12.5148 191.985 15.3681V17.3588H168.416V13.2978H187.208C187.208 11.5725 186.863 10.0331 186.173 8.67942C185.496 7.32576 184.527 6.25743 183.266 5.47443C182.019 4.69143 180.546 4.29994 178.847 4.29994C176.976 4.29994 175.357 4.76443 173.99 5.69341C172.636 6.60912 171.594 7.80352 170.864 9.27662C170.134 10.7497 169.77 12.329 169.77 14.0144V16.7217C169.77 19.0309 170.168 20.9884 170.964 22.5942C171.773 24.1868 172.895 25.4011 174.328 26.2372C175.761 27.06 177.427 27.4714 179.325 27.4714C180.559 27.4714 181.674 27.2988 182.669 26.9538C183.678 26.5955 184.547 26.0646 185.277 25.3613C186.007 24.6446 186.571 23.7554 186.969 22.6938L191.508 23.9678C191.03 25.5072 190.227 26.8609 189.099 28.0288C187.971 29.1833 186.577 30.0858 184.919 30.7361C183.26 31.3731 181.395 31.6916 179.325 31.6916Z" fill="#525252"/>
<path d="M117.783 31.0546V0.477845H122.322V5.25546H122.72C123.357 3.62311 124.386 2.35571 125.806 1.45327C127.226 0.537565 128.931 0.0797119 130.922 0.0797119C132.939 0.0797119 134.618 0.537565 135.958 1.45327C137.312 2.35571 138.367 3.62311 139.123 5.25546H139.442C140.225 3.67619 141.399 2.42207 142.965 1.49309C144.531 0.550837 146.409 0.0797119 148.599 0.0797119C151.333 0.0797119 153.569 0.935699 155.308 2.64768C157.046 4.34638 157.915 6.99398 157.915 10.5905V31.0546H153.217V10.5905C153.217 8.33437 152.6 6.72192 151.366 5.75313C150.132 4.78433 148.679 4.29994 147.006 4.29994C144.857 4.29994 143.191 4.95022 142.01 6.2508C140.829 7.5381 140.238 9.17045 140.238 11.1479V31.0546H135.461V10.1127C135.461 8.37418 134.897 6.97407 133.768 5.91238C132.64 4.83742 131.187 4.29994 129.409 4.29994C128.188 4.29994 127.047 4.62508 125.985 5.27536C124.937 5.92565 124.087 6.82809 123.437 7.98268C122.8 9.124 122.481 10.4445 122.481 11.9441V31.0546H117.783Z" fill="#525252"/>
<path d="M69.0618 31.0546V0.477845H73.6005V5.25546H73.9986C74.6357 3.62311 75.6642 2.35571 77.0842 1.45327C78.5042 0.537565 80.2095 0.0797119 82.2002 0.0797119C84.2174 0.0797119 85.8962 0.537565 87.2366 1.45327C88.5903 2.35571 89.6453 3.62311 90.4018 5.25546H90.7203C91.5033 3.67619 92.6778 2.42207 94.2438 1.49309C95.8098 0.550837 97.6877 0.0797119 99.8774 0.0797119C102.611 0.0797119 104.847 0.935699 106.586 2.64768C108.324 4.34638 109.194 6.99398 109.194 10.5905V31.0546H104.496V10.5905C104.496 8.33437 103.879 6.72192 102.644 5.75313C101.41 4.78433 99.957 4.29994 98.2848 4.29994C96.1349 4.29994 94.4694 4.95022 93.2883 6.2508C92.1071 7.5381 91.5166 9.17045 91.5166 11.1479V31.0546H86.7389V10.1127C86.7389 8.37418 86.1749 6.97407 85.0469 5.91238C83.9188 4.83742 82.4656 4.29994 80.6873 4.29994C79.4664 4.29994 78.325 4.62508 77.2633 5.27536C76.2149 5.92565 75.3656 6.82809 74.7153 7.98268C74.0783 9.124 73.7598 10.4445 73.7598 11.9441V31.0546H69.0618Z" fill="#525252"/>
<path d="M48.0351 31.6916C45.2747 31.6916 42.8527 31.0347 40.7691 29.7208C38.6988 28.407 37.0797 26.5689 35.9119 24.2067C34.7573 21.8444 34.18 19.084 34.18 15.9255C34.18 12.7404 34.7573 9.96008 35.9119 7.58455C37.0797 5.20901 38.6988 3.36432 40.7691 2.05048C42.8527 0.736634 45.2747 0.0797119 48.0351 0.0797119C50.7955 0.0797119 53.2108 0.736634 55.2811 2.05048C57.3647 3.36432 58.9838 5.20901 60.1384 7.58455C61.3062 9.96008 61.8902 12.7404 61.8902 15.9255C61.8902 19.084 61.3062 21.8444 60.1384 24.2067C58.9838 26.5689 57.3647 28.407 55.2811 29.7208C53.2108 31.0347 50.7955 31.6916 48.0351 31.6916ZM48.0351 27.4714C50.1319 27.4714 51.8572 26.9339 53.2108 25.8589C54.5645 24.784 55.5665 23.3706 56.2167 21.6188C56.867 19.867 57.1922 17.9692 57.1922 15.9255C57.1922 13.8817 56.867 11.9773 56.2167 10.2122C55.5665 8.44717 54.5645 7.02052 53.2108 5.93229C51.8572 4.84405 50.1319 4.29994 48.0351 4.29994C45.9382 4.29994 44.213 4.84405 42.8593 5.93229C41.5057 7.02052 40.5037 8.44717 39.8534 10.2122C39.2031 11.9773 38.878 13.8817 38.878 15.9255C38.878 17.9692 39.2031 19.867 39.8534 21.6188C40.5037 23.3706 41.5057 24.784 42.8593 25.8589C44.213 26.9339 45.9382 27.4714 48.0351 27.4714Z" fill="#525252"/>
<path d="M16.7218 31.6916C13.8552 31.6916 11.3868 31.0148 9.31648 29.6611C7.24618 28.3074 5.65364 26.4429 4.53886 24.0673C3.42409 21.6918 2.8667 18.9778 2.8667 15.9255C2.8667 12.82 3.43736 10.0795 4.57868 7.70399C5.73327 5.31518 7.33908 3.45058 9.39611 2.1102C11.4664 0.75654 13.8818 0.0797119 16.6422 0.0797119C18.7921 0.0797119 20.7297 0.477846 22.4549 1.27411C24.1802 2.07038 25.5935 3.18516 26.6951 4.61844C27.7966 6.05173 28.48 7.72389 28.7454 9.63494H24.0475C23.6891 8.24147 22.8929 7.00725 21.6587 5.93229C20.4377 4.84405 18.7921 4.29994 16.7218 4.29994C14.8904 4.29994 13.2846 4.7777 11.9044 5.73322C10.5374 6.67547 9.4691 8.00922 8.69937 9.73447C7.94291 11.4465 7.56469 13.457 7.56469 15.7662C7.56469 18.1285 7.93628 20.1855 8.67946 21.9373C9.43592 23.6891 10.4976 25.0494 11.8645 26.0182C13.2447 26.987 14.8638 27.4714 16.7218 27.4714C17.9427 27.4714 19.0509 27.259 20.0462 26.8344C21.0415 26.4097 21.8843 25.7992 22.5744 25.0029C23.2645 24.2067 23.7555 23.2511 24.0475 22.1364H28.7454C28.48 23.9412 27.8231 25.567 26.7747 27.0135C25.7395 28.4468 24.366 29.5881 22.654 30.4375C20.9553 31.2736 18.9779 31.6916 16.7218 31.6916Z" fill="#525252"/>
</svg>
