<svg width="53" height="53" viewBox="0 0 53 53" fill="none" xmlns="http://www.w3.org/2000/svg">
<path fill-rule="evenodd" clip-rule="evenodd" d="M0 26.5C0 11.8645 11.8645 0 26.5 0C27.8974 0 29.0302 1.13279 29.0302 2.53015C29.0302 3.92751 27.8974 5.0603 26.5 5.0603C14.6592 5.0603 5.0603 14.6592 5.0603 26.5C5.0603 38.3409 14.6592 47.9397 26.5 47.9397C38.3409 47.9397 47.9397 38.3409 47.9397 26.5C47.9397 20.1505 45.1826 14.4483 40.7925 10.5189C39.7513 9.58697 39.6627 7.98742 40.5946 6.9462C41.5266 5.90499 43.1261 5.8164 44.1673 6.74834C49.5846 11.597 53 18.6513 53 26.5C53 41.1356 41.1356 53 26.5 53C11.8645 53 0 41.1357 0 26.5ZM18.5101 15.7136C16.9656 15.7136 15.7136 16.9656 15.7136 18.5101C15.7136 20.0546 16.9656 21.3065 18.5101 21.3065C20.0546 21.3065 21.3065 20.0546 21.3065 18.5101C21.3065 16.9656 20.0546 15.7136 18.5101 15.7136ZM10.6533 18.5101C10.6533 14.1709 14.1709 10.6533 18.5101 10.6533C22.8493 10.6533 26.3668 14.1709 26.3668 18.5101C26.3668 22.8493 22.8493 26.3668 18.5101 26.3668C14.1709 26.3668 10.6533 22.8493 10.6533 18.5101ZM38.9424 14.0576C39.9304 15.0457 39.9304 16.6477 38.9424 17.6358L17.6358 38.9424C16.6477 39.9304 15.0457 39.9304 14.0576 38.9424C13.0696 37.9543 13.0696 36.3523 14.0576 35.3642L35.3642 14.0576C36.3523 13.0696 37.9543 13.0696 38.9424 14.0576ZM34.49 31.6935C32.9454 31.6935 31.6935 32.9454 31.6935 34.49C31.6935 36.0345 32.9454 37.2864 34.49 37.2864C36.0345 37.2864 37.2864 36.0345 37.2864 34.49C37.2864 32.9454 36.0345 31.6935 34.49 31.6935ZM26.6332 34.49C26.6332 30.1507 30.1507 26.6332 34.49 26.6332C38.8292 26.6332 42.3467 30.1507 42.3467 34.49C42.3467 38.8292 38.8292 42.3467 34.49 42.3467C30.1507 42.3467 26.6332 38.8292 26.6332 34.49Z" fill="#1C2439"/>
</svg>
