<svg width="206" height="216" viewBox="0 0 206 216" fill="none" xmlns="http://www.w3.org/2000/svg">
<path d="M8.49873 212.511C7.17913 212.511 5.85952 212.02 4.86982 210.875C3.88011 209.894 3.38526 208.586 3.55021 207.114L13.9421 48.7935C14.1071 46.1767 16.2514 44.214 18.8906 44.214H62.4377V43.5598C62.4377 32.7653 66.7264 22.7885 74.3141 15.1015C82.0668 7.74154 92.1288 3.48915 103.016 3.48915C125.284 3.48915 143.593 21.4801 143.593 43.7234C143.593 43.8869 143.429 44.0505 143.429 44.214V44.3776H187.14C189.78 44.3776 191.924 46.3402 192.089 48.9571L202.316 206.132C202.481 206.623 202.481 206.95 202.481 207.441C202.316 210.221 200.172 212.511 197.367 212.511H8.49873ZM13.7772 202.698H192.089L182.522 54.1908H143.429V65.9667H143.593C146.233 67.7658 147.717 70.3826 147.717 73.3266C147.717 78.3968 143.593 82.4856 138.48 82.4856C133.367 82.4856 129.243 78.3968 129.243 73.3266C129.243 70.3826 130.727 67.7658 133.367 65.9667H133.531V54.1908H72.3347V65.9667H72.4997C75.1389 67.7658 76.6234 70.3826 76.6234 73.3266C76.6234 78.3968 72.4997 82.4856 67.3862 82.4856C62.2727 82.4856 58.1489 78.3968 58.1489 73.3266C58.1489 70.3826 59.6335 67.7658 62.2727 65.9667H62.4377V54.1908H23.3443L13.7772 202.698ZM103.016 13.4659C86.1906 13.4659 72.3347 27.0409 72.3347 43.8869V44.5411H133.861L133.696 44.214V43.8869C133.696 27.0409 119.841 13.4659 103.016 13.4659Z" fill="black"/>
<path fill-rule="evenodd" clip-rule="evenodd" d="M76.789 17.5826C69.8422 24.64 65.9567 33.7352 65.9567 43.5598V47.7032H18.8907C18.078 47.7032 17.5013 48.2645 17.4543 49.0112L17.4537 49.0201L7.05657 207.42L7.04769 207.499C7.00286 207.899 7.111 208.163 7.35814 208.408L7.45371 208.503L7.54166 208.605C7.68644 208.772 7.82751 208.864 7.95978 208.921C8.09974 208.981 8.27832 209.022 8.49879 209.022H197.367C198.036 209.022 198.857 208.464 198.962 207.319L198.962 207.283L198.96 207.185L198.834 206.807L188.577 49.1817L188.577 49.1747C188.53 48.428 187.953 47.8667 187.141 47.8667H139.91V44.214C139.91 43.772 139.989 43.4002 140.07 43.1306C139.748 23.0974 123.152 6.97829 103.016 6.97829C93.1029 6.97829 83.9165 10.8349 76.789 17.5826ZM71.8806 12.5812C80.2526 4.63329 91.1739 0 103.016 0C126.265 0 145.538 18.0344 147.021 40.8884H187.141C191.604 40.8884 195.314 44.2489 195.601 48.7325M195.601 48.7394L205.804 205.538C206.001 206.326 206 206.95 206 207.385L206 207.543L205.994 207.646C205.735 212.006 202.291 216 197.367 216H8.49879C6.30695 216 4.00828 215.177 2.28654 213.247C0.637106 211.558 -0.206702 209.28 0.0432935 206.818L10.4301 48.5759L10.4304 48.5709C10.7157 44.0864 14.4267 40.7249 18.8907 40.7249H59.0102C59.6994 30.0747 64.2601 20.2988 71.7993 12.6609L71.8393 12.6204L71.8806 12.5812M68.8158 43.8869C68.8158 25.1017 84.2595 9.97678 103.016 9.97678C121.604 9.97678 136.938 24.8319 137.212 43.383L139.555 48.0303H68.8158V43.8869ZM130.028 41.052C128.59 27.4846 116.953 16.9551 103.016 16.9551C89.0786 16.9551 77.4409 27.4846 76.0031 41.052H130.028ZM20.043 50.7017H65.9567V69.4558H63.4808C62.2364 70.5755 61.6679 71.9234 61.6679 73.3266C61.6679 76.4698 64.2162 78.9965 67.3862 78.9965C70.5563 78.9965 73.1045 76.4698 73.1045 73.3266C73.1045 71.9234 72.536 70.5755 71.2917 69.4558H68.8158V50.7017H137.05V69.4558H134.575C133.33 70.5755 132.762 71.9234 132.762 73.3266C132.762 76.4698 135.31 78.9965 138.48 78.9965C141.65 78.9965 144.198 76.4698 144.198 73.3266C144.198 71.9234 143.63 70.5755 142.386 69.4558H139.91V50.7017H185.823L195.84 206.187H10.0263L20.043 50.7017ZM146.948 64.1414C149.627 66.4798 151.236 69.689 151.236 73.3266C151.236 80.3238 145.537 85.9748 138.48 85.9748C131.423 85.9748 125.724 80.3238 125.724 73.3266C125.724 69.689 127.333 66.4798 130.013 64.1414V57.68H75.8537V64.1414C78.533 66.4798 80.1424 69.689 80.1424 73.3266C80.1424 80.3238 74.4432 85.9748 67.3862 85.9748C60.3293 85.9748 54.63 80.3238 54.63 73.3266C54.63 69.689 56.2395 66.4798 58.9188 64.1414V57.68H26.6457L17.5281 199.208H188.338L179.221 57.68H146.948V64.1414Z" fill="black"/>
</svg>
