<svg width="102" height="102" viewBox="0 0 102 102" fill="none" xmlns="http://www.w3.org/2000/svg">
<path d="M62.1454 10.9383C48.07 15.0523 33.993 19.1697 19.9176 23.282C20.6793 24.4137 21.3872 25.5818 22.0388 26.7824C35.9661 22.4235 49.8951 18.0647 63.8241 13.7091C63.3101 12.7629 62.7505 11.8398 62.1454 10.9383Z" fill="#1C2439"/>
<path fill-rule="evenodd" clip-rule="evenodd" d="M62.6899 9.40211L63.2202 10.1922C63.8479 11.1274 64.429 12.0858 64.9631 13.0691L65.7378 14.4951L64.2065 14.974C50.2777 19.3295 36.3489 23.6883 22.4215 28.0471L21.4106 28.3635L20.8995 27.4218C20.268 26.2582 19.5819 25.1262 18.8438 24.0295L17.8253 22.5164L19.5583 22.0101C28.1867 19.4891 36.8155 16.9664 45.4443 14.4436C50.8915 12.851 56.3388 11.2585 61.7859 9.66633L62.6899 9.40211ZM21.9725 24.0585C22.2055 24.4371 22.4327 24.8194 22.6543 25.205C35.7255 21.1141 48.7982 17.0233 61.871 12.9352C61.7778 12.7823 61.6833 12.63 61.5875 12.4782C56.4456 13.9812 51.3034 15.4846 46.161 16.988C38.0982 19.3453 30.035 21.7027 21.9725 24.0585Z" fill="#1C2439"/>
<path d="M66.2103 18.9976L25.0578 33.472C25.5344 34.7507 25.9687 36.0493 26.3689 37.3644C39.9936 32.2661 53.6233 27.1728 67.2465 22.0778C66.9309 21.0409 66.5854 20.0138 66.2103 18.9976Z" fill="#1C2439"/>
<path fill-rule="evenodd" clip-rule="evenodd" d="M66.9831 17.3255L67.4287 18.5326C67.8127 19.5731 68.1665 20.6248 68.4896 21.6865L68.8548 22.8863L67.6957 23.3198C62.5747 25.235 57.4531 27.1499 52.3311 29.0649C43.8267 32.2446 35.3216 35.4245 26.8182 38.6064L25.5311 39.088L25.1257 37.7556C24.7326 36.4637 24.307 35.1914 23.841 33.9411L23.366 32.6668L66.9831 17.3255ZM26.7357 34.2822C26.8934 34.7347 27.0462 35.1892 27.1945 35.6454C35.2737 32.6224 43.3547 29.6011 51.4347 26.5801C56.1652 24.8115 60.8954 23.043 65.6247 21.2743C65.5587 21.0741 65.4915 20.8742 65.4232 20.6748L26.7357 34.2822Z" fill="#1C2439"/>
<path d="M28.2428 44.6C28.5502 45.9581 28.83 47.3294 29.1 48.7058L69.3628 31.0669C69.1493 29.9813 68.9237 28.8983 68.6861 27.818C55.2028 33.4125 41.726 39.0071 28.2428 44.6Z" fill="#1C2439"/>
<path fill-rule="evenodd" clip-rule="evenodd" d="M69.62 26.0011L69.956 27.5291C70.1958 28.6191 70.4234 29.7119 70.6388 30.8072L70.8455 31.8582L28.1384 50.5679L27.8238 48.9646C27.5549 47.5941 27.278 46.237 26.9746 44.8968L26.7263 43.7998L27.7513 43.3746C36.0733 39.9226 44.3927 36.47 52.7128 33.0171C57.8728 30.8757 63.0331 28.7342 68.1945 26.5926L69.62 26.0011ZM29.7536 45.4025C29.8571 45.883 29.9577 46.3644 30.0561 46.8459L67.8764 30.277C67.8328 30.0639 67.7888 29.8509 67.7444 29.6379C63.0614 31.5811 58.3791 33.5243 53.6969 35.4674C45.7162 38.7794 37.7359 42.0912 29.7536 45.4025Z" fill="#1C2439"/>
<path d="M99.4395 52.9604C95.7698 48.8712 93.6828 44.0293 92.2514 38.8698C87.8155 41.4223 83.6171 43.8374 79.6497 46.1235C75.3066 30.4647 76.4924 12.1559 61.8526 1.42331L3.09645 15.0756C27.9386 33.2802 21.2238 80.4303 38.9494 98.1371C40.4313 99.6176 45.983 102.418 53.6998 99.1759C65.6589 94.1504 61.2751 88.45 97.9202 61.2828C101.152 58.8842 101.427 55.2118 99.4395 52.9604ZM40.023 68.9319C42.0303 76.1691 55.5591 80.0896 53.2232 90.8651C51.8048 97.4175 43.8375 98.7425 41.0868 95.9336C33.8482 88.5459 30.8536 75.2526 27.7629 61.0942C24.1859 44.7108 20.5032 27.8345 9.65997 16.7215L61.1434 4.76152C70.0655 11.9921 71.9833 22.766 74.0085 34.1487C74.8072 38.6399 75.6579 43.2419 76.943 47.6835L40.023 68.9319Z" fill="#1C2439"/>
<path fill-rule="evenodd" clip-rule="evenodd" d="M62.1363 0L62.6136 0.349889C70.2716 5.96401 73.7523 13.5532 75.8694 21.5835C76.8848 25.4351 77.5953 29.4241 78.2944 33.3494C78.3216 33.5018 78.3487 33.6542 78.3759 33.8064C79.0027 37.3233 79.6301 40.7859 80.4707 44.1297C83.4225 42.4295 86.4989 40.6593 89.7023 38.8161L93.0536 36.8878L93.5038 38.5105C94.9042 43.5581 96.9166 48.186 100.401 52.0684L100.408 52.0763C102.989 55.0002 102.443 59.565 98.6874 62.3519C80.4296 75.8874 72.4267 84.0487 67.5061 89.4334C66.9023 90.0942 66.341 90.718 65.8095 91.3089C62.0065 95.5362 59.7196 98.0782 54.1968 100.399C46.0144 103.837 39.9042 100.946 38.0375 99.0812C33.381 94.4296 30.3971 87.9184 28.1228 80.6501C26.311 74.8598 24.9159 68.4679 23.5081 62.0175C23.1495 60.3748 22.7901 58.7282 22.4228 57.0868C18.7653 40.7421 14.3021 24.9184 2.33572 16.1493L0 14.4377L62.1363 0ZM6.05015 15.7468C17.2722 25.4228 21.5474 41.247 24.9606 56.4995C25.3359 58.1768 25.7006 59.8475 26.0625 61.5051C27.4678 67.9418 28.8301 74.1819 30.6029 79.8475C32.8312 86.9687 35.6551 92.9913 39.8613 97.193C40.9585 98.2892 45.9518 100.999 53.2029 97.9529C58.1703 95.8655 60.0864 93.7395 63.879 89.5314C64.411 88.941 64.98 88.3096 65.5996 87.6317C70.638 82.1181 78.7662 73.8452 97.1532 60.2139C99.8601 58.205 99.8653 55.4278 98.4745 53.8483C95.0158 49.9927 92.9209 45.5253 91.4708 40.8396L91.0033 41.1085C87.26 43.2624 83.6908 45.3161 80.2913 47.275L78.8477 48.1068L78.3973 46.4829C77.2921 42.4981 76.542 38.3573 75.815 34.2784L75.7405 33.8605C75.0357 29.9042 74.3423 26.012 73.3555 22.2689C71.366 14.7223 68.2203 7.93063 61.5616 2.84848L6.05015 15.7468ZM61.4644 3.32957L61.9544 3.72666C71.2609 11.2687 73.2559 22.4837 75.2507 33.6976L75.2891 33.9131C76.0883 38.4073 76.9285 42.9448 78.1914 47.31L78.483 48.3178L41.6288 69.5284C42.1541 70.6676 43.035 71.7852 44.1851 72.9653C44.9118 73.711 45.7157 74.4522 46.565 75.2244C46.6871 75.3354 46.8101 75.4471 46.934 75.5594C47.6631 76.221 48.4188 76.9068 49.1487 77.6128C52.5522 80.9048 55.8194 85.0353 54.4941 91.1497C53.6658 94.9762 50.9112 97.2608 48.043 98.173C45.2763 99.0529 42.0138 98.7554 40.165 96.8678C36.3436 92.9676 33.7055 87.5791 31.6392 81.4844C29.5711 75.3843 28.0349 68.4463 26.4926 61.3811C22.8934 44.8963 19.2639 28.4433 8.73629 17.6537L7.08578 15.9621L61.4644 3.32957ZM12.1596 17.4984C22.0563 28.8494 25.6161 45.155 28.9832 60.5776L29.0334 60.8074C30.5817 67.9006 32.0882 74.6886 34.0997 80.6217C36.113 86.5601 38.5915 91.5121 42.0087 94.9996C42.9106 95.9207 45.0072 96.3653 47.2662 95.6469C49.424 94.9606 51.3623 93.3065 51.9524 90.5807C52.9627 85.9198 50.6337 82.7019 47.355 79.5306C46.6577 78.8562 45.9369 78.202 45.2066 77.5392C45.0814 77.4256 44.956 77.3118 44.8303 77.1975C43.9803 76.4247 43.124 75.6365 42.3366 74.8285C40.7778 73.229 39.364 71.4307 38.7706 69.2912L38.4933 68.2917L75.4098 47.0453C74.2595 42.845 73.4667 38.5382 72.728 34.3843C72.728 34.3842 72.728 34.3843 72.728 34.3843C70.7247 23.1248 68.8826 13.0606 60.8132 6.19577L61.4332 6.05175L61.1434 4.76152L60.3324 5.79655C60.4951 5.92839 60.6553 6.06147 60.8132 6.19577L12.1596 17.4984Z" fill="#1C2439"/>
</svg>
