<svg width="107" height="101" viewBox="0 0 107 101" fill="none" xmlns="http://www.w3.org/2000/svg">
<path fill-rule="evenodd" clip-rule="evenodd" d="M61.3822 8.66448C63.8371 9.16705 66.2444 9.90484 68.5703 10.8711C73.3442 12.8543 77.6819 15.7611 81.3356 19.4256C84.9894 23.0901 87.8877 27.4405 89.8651 32.2284C90.8285 34.5611 91.5642 36.9755 92.0653 39.4376L74.0941 39.4376C74.0221 39.2486 73.9474 39.0604 73.87 38.8732C72.7627 36.192 71.1396 33.7558 69.0935 31.7037C67.0474 29.6515 64.6183 28.0237 61.945 26.9131C61.7583 26.8356 61.5707 26.7606 61.3822 26.6884V8.66448ZM61.3822 0.636898C64.8733 1.22874 68.2953 2.21394 71.5819 3.57929C77.3105 5.95913 82.5157 9.44733 86.9002 13.8447C91.2847 18.2421 94.7627 23.4625 97.1356 29.208C98.4969 32.5042 99.4792 35.9362 100.069 39.4376C100.421 41.5225 100.633 43.632 100.704 45.752C100.732 46.6233 100.025 47.3302 99.1559 47.3302L69.2517 47.3302C68.3825 47.3302 67.6868 46.6214 67.5905 45.7549C67.4431 44.4301 67.1102 43.13 66.5996 41.8936C65.8877 40.1699 64.8443 38.6038 63.5289 37.2846C62.2136 35.9654 60.652 34.9189 58.9335 34.2049C58.0449 33.8358 56.3046 33.5136 54.9083 33.3071C54.1153 33.1898 53.5127 32.5156 53.5127 31.7117V1.55307C53.5127 0.681277 54.2178 -0.0281963 55.0866 0.000861931C57.2003 0.0715627 59.3035 0.284504 61.3822 0.636898ZM39.3475 6.95099C34.3344 7.80087 29.4735 9.46024 24.9591 11.8803C18.1111 15.5514 12.2715 20.8597 7.95751 27.3349C3.64357 33.8102 0.988464 41.2525 0.227374 49.0027C-0.533717 56.7529 0.622704 64.5717 3.5942 71.7666C6.5657 78.9615 11.2606 85.3103 17.2629 90.2508C23.2652 95.1912 30.3898 98.5708 38.0055 100.09C45.6212 101.609 53.4929 101.222 60.9235 98.9609C65.8219 97.4706 70.429 95.1967 74.573 92.2424C76.2701 91.0326 77.9254 89.6727 79.4698 88.2273C80.1061 87.6318 80.1052 86.629 79.4898 86.0118L58.3462 64.8062C57.7316 64.1897 56.7399 64.1976 56.0609 64.7419C54.6597 65.8651 53.0546 66.7143 51.329 67.2393C49.0998 67.9175 46.7383 68.0338 44.4536 67.578C42.1689 67.1223 40.0315 66.1084 38.2308 64.6263C36.4301 63.1441 35.0217 61.2395 34.1302 59.081C33.2388 56.9225 32.8918 54.5769 33.1202 52.2518C33.3485 49.9268 34.145 47.6941 35.4392 45.7515C36.7334 43.8089 38.4853 42.2165 40.5397 41.1151C42.1291 40.2631 43.8616 39.7253 45.6432 39.5256C46.507 39.4287 47.2171 38.7309 47.2171 37.8591L47.2171 7.92068C47.2171 7.02826 46.4803 6.31313 45.5918 6.36118C43.5311 6.47261 40.9582 6.67793 39.3475 6.95099ZM39.3476 14.9786C35.634 15.7388 32.0358 17.036 28.6688 18.841C22.9621 21.9003 18.0957 26.3238 14.5008 31.7198C10.9058 37.1158 8.69323 43.3178 8.05899 49.7763C7.42475 56.2348 8.38843 62.7505 10.8647 68.7462C13.3409 74.7419 17.2533 80.0326 22.2553 84.1497C27.2572 88.2667 33.1943 91.083 39.5408 92.3491C45.8872 93.6152 52.447 93.292 58.6391 91.4081C62.2925 90.2966 65.7514 88.662 68.9133 86.566L56.2058 73.8212C56.2058 73.8212 54.4995 74.5225 53.6134 74.792C50.1458 75.847 46.4723 76.028 42.9183 75.319C39.3644 74.61 36.0396 73.0329 33.2385 70.7273C30.4374 68.4218 28.2464 65.459 26.8597 62.1014C25.473 58.7438 24.9334 55.095 25.2886 51.4782C25.6437 47.8615 26.8828 44.3884 28.8959 41.3666C30.9091 38.3448 33.6343 35.8676 36.83 34.1545C37.6467 33.7167 38.4876 33.3322 39.3476 33.0025L39.3476 14.9786ZM70.8627 64.0948C70.3235 64.7742 70.3191 65.7644 70.9313 66.3785L92.0829 87.5922C92.6975 88.2086 93.6962 88.2104 94.29 87.5738C95.7348 86.0247 97.072 84.3825 98.2934 82.6591C100.345 79.7647 102.07 76.6413 103.431 73.3451C104.793 70.0488 105.775 66.6168 106.365 63.1155C106.716 61.0306 106.929 58.9211 106.999 56.8011C107.028 55.9298 106.321 55.2228 105.451 55.2228H75.5473C74.6781 55.2228 73.9825 55.9317 73.8861 56.7981C73.7387 58.123 73.4058 59.4231 72.8952 60.6595C72.3916 61.8789 71.6933 63.0484 70.8627 64.0948ZM79.9262 64.2379C80.0085 64.0531 80.0883 63.8671 80.1656 63.6799C80.243 63.4927 80.3177 63.3045 80.3897 63.1155H98.3609C97.8598 65.5775 97.1241 67.9919 96.1607 70.3247C95.1973 72.6575 94.0152 74.8864 92.6337 76.9827L79.9262 64.2379Z" fill="#1C2439"/>
</svg>
