<svg width="142" height="125" viewBox="0 0 142 125" fill="none" xmlns="http://www.w3.org/2000/svg">
<path d="M12.5331 50.0165L112.798 50.0165C119.649 50.0165 125.331 55.6851 125.331 62.5207C125.331 69.3563 119.649 75.0248 112.798 75.0248L12.5331 75.0248C5.68168 75.0248 5.98974e-07 69.3563 0 62.5207C-5.9897e-07 55.6851 5.68168 50.0165 12.5331 50.0165Z" fill="#888C97"/>
<path d="M79.3762 0C82.5513 -2.76931e-07 85.7263 1.16706 88.2329 3.66789L138.365 53.6846C143.212 58.5195 143.212 66.5222 138.365 71.3571L88.2329 121.374C83.3868 126.209 75.3656 126.209 70.5195 121.374C65.6733 116.539 65.6733 108.536 70.5195 103.701L111.795 62.5208L70.5195 21.3404C65.6733 16.5055 65.6733 8.50284 70.5195 3.66789C73.0261 1.16706 76.2011 2.76931e-07 79.3762 0Z" fill="#888C97"/>
</svg>
