<svg width="128" height="133" viewBox="0 0 128 133" fill="none" xmlns="http://www.w3.org/2000/svg">
<path fill-rule="evenodd" clip-rule="evenodd" d="M45.6847 6.05639C41.1767 8.78725 37.3332 14.0954 33.5713 22.7521L33.5217 22.8661L33.4573 22.9727C33.3941 23.0771 33.3623 23.1567 33.2937 23.3284C33.2446 23.4512 33.1767 23.621 33.0651 23.8806L32.6665 24.9352L32.3902 25.5521L27.1208 38.1012C28.6653 37.939 30.2207 37.8722 31.7833 37.8722H46.3685L60.8293 4.4696C54.4631 3.07677 49.6703 3.64207 45.6847 6.05639ZM43.7301 2.87931C49.3448 -0.521892 55.9227 -0.766871 63.9177 1.39371L66 1.95644L48.8397 41.5945H31.7833C29.2491 41.5945 26.824 41.7834 24.4891 42.2711L21 43L28.9445 24.0802L29.1933 23.5246L29.5828 22.4939L29.5998 22.4545C29.6231 22.4006 29.6527 22.3276 29.6875 22.2416C29.8022 21.9584 29.9741 21.5339 30.1676 21.184C34.0097 12.3682 38.2303 6.21096 43.7301 2.87931Z" fill="#272F43"/>
<path fill-rule="evenodd" clip-rule="evenodd" d="M68.8973 3L70.5685 3.58325C71.0207 3.74104 71.4848 3.92597 71.9101 4.09538C71.9654 4.11741 72.02 4.13918 72.0739 4.16059C72.5613 4.35435 73.0064 4.52754 73.438 4.66813L73.5066 4.69047L88.1676 10.7191L88.1722 10.721C96.3894 14.0508 102.414 17.6137 106.211 22.0944L106.24 22.1286L106.268 22.1642C106.868 22.9465 107.436 23.7069 108.007 24.6133C108.638 25.5739 109.181 26.6047 109.514 27.752C109.773 28.3326 109.996 28.9182 110.154 29.5879C111.234 33.2174 111.276 37.2622 110.303 41.6745L109.791 44L107.642 42.95C103.888 41.9258 100.087 41.3875 96.233 41.3875H52L68.8973 3ZM106.969 38.9666C107.434 35.8131 107.252 33.0241 106.514 30.5715L106.496 30.5118L106.482 30.4511C106.388 30.0349 106.242 29.6422 106.005 29.1214L105.945 28.9882L105.907 28.8474C105.709 28.1221 105.349 27.3961 104.821 26.5932L104.811 26.5779L104.801 26.5625C104.327 25.809 103.848 25.1617 103.275 24.4142C100.065 20.6449 94.7335 17.3737 86.7213 14.1275L86.7122 14.1238L72.1731 8.14523C71.748 8.00446 71.3317 7.84644 70.9445 7.69437L57.735 37.6978H96.233C99.8687 37.6978 103.448 38.1359 106.969 38.9666Z" fill="#272F43"/>
<path fill-rule="evenodd" clip-rule="evenodd" d="M69.8571 103.895C69.5416 103.963 69.2125 104 68.875 104H67V96L70.15 96.9023C72.1 97.5038 73 97.8647 73 100.391C73 102.078 71.6453 103.505 69.8571 103.895ZM69.8571 99.2804V101.209C70.0264 101.004 70.1429 100.732 70.1429 100.391C70.1429 99.7778 70.076 99.4764 70.0364 99.3516C69.9859 99.3296 69.9277 99.3064 69.8571 99.2804Z" fill="#272F43"/>
<path fill-rule="evenodd" clip-rule="evenodd" d="M21.3963 57.1289L21.3874 57.1327C11.7373 61.2849 4.9961 70.8549 4.9961 81.9432V94.7074C4.9961 95.9985 5.10332 97.2823 5.28538 98.7363L5.30252 98.8731L5.31205 99.0107C5.97772 108.616 8.8275 115.316 13.3007 119.775C17.7726 124.232 24.4825 127.062 34.0997 127.696L34.2587 127.707L34.4167 127.727C35.7779 127.905 37.0616 128.013 38.4262 128.013H89.5738C100.973 128.013 108.856 125.306 114.008 120.671C119.116 116.076 122.303 108.896 122.88 98.3022C122.946 97.053 123.004 95.8672 123.004 94.7074V81.9432C123.004 69.7624 114.894 59.4773 103.824 56.0902C101.321 55.372 98.7176 54.9872 96 54.9872H32C28.1965 54.9872 24.6787 55.7091 21.3963 57.1289ZM105.246 51.3092C102.295 50.4582 99.2131 50 96 50H32C27.541 50 23.3443 50.8509 19.4098 52.5528C8 57.4621 0 68.7863 0 81.9432V94.7074C0 96.2784 0.131147 97.7839 0.327869 99.3549C1.77049 120.17 12.918 131.298 33.7705 132.673C35.2787 132.869 36.7869 133 38.4262 133H89.5738C113.836 133 126.623 121.479 127.869 98.5694C127.934 97.3257 128 96.0166 128 94.7074V81.9432C128 67.4771 118.361 55.3021 105.246 51.3092ZM55.5941 101.167C56.2227 103.143 57.9662 104.591 60 104.591H60.5902V93.5292L55.6066 91.7618C52.5902 90.7145 48.5246 88.489 48.5246 81.5505C48.5246 75.5939 53.1803 70.8155 58.9508 70.8155H60.5902V69.3754C60.5902 67.4771 62.0984 65.9716 64 65.9716C65.9016 65.9716 67.4098 67.4771 67.4098 69.3754V70.8155H68C74.2951 70.8155 79.4754 76.1175 79.4754 82.6633C79.4754 84.5615 77.9672 86.067 76.0656 86.067C74.1639 86.067 72.6557 84.5615 72.6557 82.6633C72.6557 82.1004 72.5678 81.5567 72.4059 81.048C71.7773 79.072 70.0338 77.623 68 77.623H67.4098V88.6853L72.3934 90.4527C75.4098 91.5 79.4754 93.7256 79.4754 100.664C79.4754 106.621 74.8197 111.399 69.0492 111.399H67.4098V112.839C67.4098 114.737 65.9016 116.243 64 116.243C62.0984 116.243 60.5902 114.737 60.5902 112.839V111.399H60C53.7049 111.399 48.5246 106.097 48.5246 99.5513C48.5246 97.653 50.0328 96.1475 51.9344 96.1475C53.8361 96.1475 55.3443 97.653 55.3443 99.5513C55.3443 100.114 55.4322 100.658 55.5941 101.167ZM56.1777 115.931C48.8649 114.153 43.5285 107.392 43.5285 99.5513C43.5285 96.5493 45.0875 93.928 47.4457 92.4458C47.367 92.3624 47.2887 92.2774 47.2111 92.1908C44.8924 89.6039 43.5285 86.0789 43.5285 81.5505C43.5285 73.8881 48.9276 67.3578 56.269 66.0617C57.5501 63.0687 60.5197 60.9844 64 60.9844C67.5657 60.9844 70.5954 63.1723 71.8223 66.2837C79.1351 68.0613 84.4715 74.8224 84.4715 82.6633C84.4715 85.6652 82.9125 88.2865 80.5543 89.7687C80.633 89.8521 80.7112 89.9371 80.7889 90.0237C83.1076 92.6106 84.4715 96.1356 84.4715 100.664C84.4715 108.326 79.0724 114.857 71.731 116.153C70.4499 119.146 67.4803 121.23 64 121.23C60.4343 121.23 57.4046 119.042 56.1777 115.931Z" fill="#272F43"/>
<path fill-rule="evenodd" clip-rule="evenodd" d="M57.85 84.985C55.9 84.3083 55 83.9023 55 81.0602C55 79.1536 56.3121 77.5429 58.1429 77.1127C58.4564 77.0391 58.7851 77 59.125 77H61V86L57.85 84.985ZM58.1429 82.3095V80.1096C57.9726 80.3416 57.8571 80.6549 57.8571 81.0602C57.8571 81.75 57.924 82.0891 57.9636 82.2294C58.0141 82.2542 58.0723 82.2803 58.1429 82.3095Z" fill="#272F43"/>
</svg>
