<svg width="95" height="84" viewBox="0 0 95 84" fill="none" xmlns="http://www.w3.org/2000/svg">
<path d="M42.2098 3.91877H17.4915C16.9227 3.91877 16.4616 4.37857 16.4616 4.94582V25.4866C16.4616 26.0539 16.9227 26.5137 17.4915 26.5137H42.2098C42.7786 26.5137 43.2397 26.0539 43.2397 25.4866V4.94582C43.2397 4.37857 42.7786 3.91877 42.2098 3.91877ZM17.4915 0.837646C15.2163 0.837646 13.3718 2.67694 13.3718 4.94582V25.4866C13.3718 27.7556 15.2163 29.5948 17.4915 29.5948H42.2098C44.4851 29.5948 46.3295 27.7556 46.3295 25.4866V4.94582C46.3295 2.67694 44.4851 0.837646 42.2098 0.837646H17.4915ZM88.4742 45.18H85.6381V42.0366C85.6381 39.2655 85.1131 36.5217 84.0936 33.9624C83.074 31.403 81.5793 29.0785 79.6956 27.1219C77.8119 25.1654 75.5765 23.6154 73.1169 22.5607C70.6572 21.506 68.0223 20.9673 65.3621 20.9756H60.2328V19.5925C60.2328 16.9413 59.2222 14.3988 57.423 12.5242C55.6233 10.6495 53.1831 9.59638 50.6385 9.59638H44.3625C43.9314 9.678 43.5416 9.91469 43.2609 10.2651C42.9802 10.6155 42.8264 11.0574 42.8264 11.5139C42.8264 11.9703 42.9802 12.4122 43.2609 12.7626C43.5416 13.1131 43.9314 13.3497 44.3625 13.4314H50.6988C52.299 13.4314 53.8341 14.0937 54.9655 15.2727C56.0974 16.4517 56.7332 18.0509 56.7332 19.7182V64.6694C56.7332 66.3369 56.0974 67.9357 54.9655 69.1147C53.8341 70.2937 52.299 70.956 50.6988 70.956H32.5953C32.396 68.2388 31.2192 65.7003 29.3004 63.848C27.3815 61.9958 24.8621 60.9665 22.2463 60.9665C19.6305 60.9665 17.1111 61.9958 15.1922 63.848C13.2734 65.7003 12.0965 68.2388 11.8973 70.956H9.84555C8.24509 70.956 6.7102 70.2937 5.57856 69.1147C4.44687 67.9357 3.8111 66.3369 3.8111 64.6694V19.5925C3.8111 17.9251 4.44687 16.326 5.57856 15.147C6.7102 13.968 8.24509 13.3056 9.84555 13.3056H14.311C14.742 13.224 15.1319 12.9873 15.4126 12.6369C15.6933 12.2865 15.847 11.8446 15.847 11.3882C15.847 10.9317 15.6933 10.4898 15.4126 10.1394C15.1319 9.78894 14.742 9.5523 14.311 9.47063H9.84555C8.57531 9.47053 7.31773 9.73318 6.14567 10.2434C4.97366 10.7536 3.91053 11.5012 3.01798 12.4428C2.12543 13.3843 1.42124 14.5012 0.946225 15.7285C0.471205 16.9558 0.234802 18.2692 0.250757 19.5925V64.5438C0.250757 67.1949 1.26164 69.7372 3.06103 71.612C4.86036 73.4867 7.30082 74.5395 9.84555 74.5395H12.1386C12.7175 76.8739 14.0244 78.9419 15.854 80.4182C17.6836 81.8941 19.9322 82.6951 22.2463 82.6951C24.5604 82.6951 26.809 81.8941 28.6386 80.4182C30.4682 78.9419 31.7751 76.8739 32.354 74.5395H62.526C63.0815 76.887 64.3761 78.9728 66.2026 80.4638C68.0296 81.9548 70.2829 82.7647 72.6034 82.7647C74.9239 82.7647 77.1777 81.9548 79.0047 80.4638C80.8312 78.9728 82.1259 76.887 82.6813 74.5395H88.7157C90.3159 74.5395 91.851 73.8773 92.9823 72.6983C94.1142 71.5193 94.75 69.9204 94.75 68.253V51.2154C94.719 50.3896 94.5321 49.5783 94.1998 48.8278C93.8675 48.0774 93.396 47.4026 92.8133 46.842C92.2305 46.2815 91.547 45.8462 90.8025 45.561C90.0581 45.2758 89.2669 45.1463 88.4742 45.18ZM22.0954 78.9403C20.7581 78.8911 19.4642 78.433 18.3751 77.6231C17.2859 76.8127 16.4496 75.6871 15.9703 74.3851C15.491 73.0836 15.3899 71.6638 15.6797 70.3026C15.9694 68.9414 16.6371 67.6991 17.5997 66.7306C18.5622 65.762 19.7771 65.1102 21.0928 64.8558C22.4085 64.6014 23.767 64.7563 24.999 65.3003C26.231 65.8447 27.282 66.7546 28.0212 67.9169C28.7603 69.0791 29.1549 70.4424 29.1557 71.8365C29.1558 72.7799 28.9756 73.7139 28.6254 74.5845C28.2752 75.4547 27.7621 76.2436 27.116 76.9048C26.47 77.566 25.704 78.087 24.8627 78.4361C24.0214 78.7859 23.1217 78.9571 22.2161 78.9403H22.0954ZM72.3021 78.9403C70.9533 78.9403 69.6351 78.5236 68.5137 77.743C67.3923 76.9624 66.5182 75.8531 66.0021 74.5552C65.486 73.2569 65.3511 71.8287 65.6141 70.4502C65.8771 69.0723 66.5265 67.8064 67.4805 66.8128C68.4339 65.8196 69.6487 65.1427 70.9717 64.8689C72.2942 64.5946 73.6655 64.7354 74.9113 65.2731C76.1571 65.8107 77.2224 66.7211 77.9715 67.8897C78.7207 69.0577 79.1208 70.4314 79.1208 71.8365C79.1055 73.694 78.3989 75.473 77.1494 76.7986C75.8999 78.1236 74.2052 78.8916 72.4228 78.9403H72.3021ZM90.4051 68.5043C90.4051 68.7933 90.3505 69.0796 90.2445 69.3461C90.1384 69.6131 89.9825 69.856 89.7867 70.0602C89.5903 70.2644 89.3577 70.4267 89.1015 70.5371C88.8453 70.6476 88.5708 70.7047 88.293 70.7047H82.6209C82.4214 67.9876 81.2449 65.4484 79.326 63.5962C77.4072 61.7445 74.8877 60.7152 72.2716 60.7152C69.6561 60.7152 67.1366 61.7445 65.2177 63.5962C63.2988 65.4484 62.1218 67.9876 61.9228 70.7047H58.0005C59.3692 68.92 60.1142 66.7023 60.1126 64.4176V24.7477H65.3621C69.7584 24.7643 73.9705 26.5911 77.079 29.8298C80.1876 33.0685 81.9411 37.4564 81.9568 42.0366V53.4785C81.9568 53.979 82.1479 54.4585 82.4871 54.8124C82.8267 55.1658 83.2872 55.3647 83.7675 55.3647C84.2474 55.3647 84.7078 55.1658 85.0475 54.8124C85.3872 54.4585 85.5777 53.979 85.5777 53.4785V48.9521H88.4138C88.9797 48.9685 89.5168 49.2142 89.9111 49.6369C90.3054 50.0595 90.5259 50.6259 90.5259 51.2154L90.4051 68.5043Z" stroke="#272F43" stroke-width="0.5"/>
</svg>
