<svg width="130" height="130" viewBox="0 0 130 130" fill="none" xmlns="http://www.w3.org/2000/svg">
<circle cx="65" cy="65" r="63.25" fill="#D5D8DC" stroke="#292D32" stroke-width="3.5"/>
<path d="M65.4035 73.8871C65.2832 73.8871 65.1027 73.8871 64.9823 73.8871C64.8018 73.8871 64.5611 73.8871 64.3806 73.8871C50.7223 73.4659 40.4937 62.8161 40.4937 49.6993C40.4937 36.3418 51.3842 25.4513 64.7416 25.4513C78.0991 25.4513 88.9897 36.3418 88.9897 49.6993C88.9295 62.8762 78.6406 73.4659 65.584 73.8871C65.4637 73.8871 65.4637 73.8871 65.4035 73.8871ZM64.6815 34.4164C56.2579 34.4164 49.4588 41.2757 49.4588 49.6391C49.4588 57.8822 55.8968 64.561 64.0798 64.8618C64.2603 64.8016 64.862 64.8016 65.4637 64.8618C73.5263 64.4406 79.844 57.8221 79.9042 49.6391C79.9042 41.2757 73.1051 34.4164 64.6815 34.4164Z" fill="#292D32"/>
<path d="M64.6818 129.362C48.4964 129.362 33.0331 123.346 21.0595 112.395C19.9765 111.432 19.4951 109.988 19.6155 108.604C20.3977 101.444 24.8501 94.7654 32.2509 89.8316C50.1812 77.9182 79.2427 77.9182 97.1128 89.8316C104.514 94.8256 108.966 101.444 109.748 108.604C109.929 110.048 109.387 111.432 108.304 112.395C96.3306 123.346 80.8672 129.362 64.6818 129.362ZM29.0619 107.401C39.05 115.764 51.6252 120.337 64.6818 120.337C77.7384 120.337 90.3137 115.764 100.302 107.401C99.2187 103.731 96.3306 100.181 92.0586 97.2925C77.2571 87.4249 52.1667 87.4249 37.2449 97.2925C32.9729 100.181 30.145 103.731 29.0619 107.401Z" fill="#292D32"/>
<path d="M64.6814 129.363C29.0013 129.363 0 100.361 0 64.6814C0 29.0013 29.0013 0 64.6814 0C100.361 0 129.363 29.0013 129.363 64.6814C129.363 100.361 100.361 129.363 64.6814 129.363ZM64.6814 9.02531C33.9953 9.02531 9.02531 33.9953 9.02531 64.6814C9.02531 95.3674 33.9953 120.337 64.6814 120.337C95.3674 120.337 120.337 95.3674 120.337 64.6814C120.337 33.9953 95.3674 9.02531 64.6814 9.02531Z" fill="#292D32"/>
</svg>
