<svg width="20" height="17" viewBox="0 0 20 17" fill="none" xmlns="http://www.w3.org/2000/svg">
<path fill-rule="evenodd" clip-rule="evenodd" d="M8.99234 0.939543H4.2841C4.17575 0.939543 4.08792 1.02737 4.08792 1.13572V5.05925C4.08792 5.1676 4.17575 5.25543 4.2841 5.25543H8.99234C9.10068 5.25543 9.18851 5.1676 9.18851 5.05925V1.13572C9.18851 1.02737 9.10068 0.939543 8.99234 0.939543ZM4.2841 0.351013C3.85071 0.351013 3.49939 0.702338 3.49939 1.13572V5.05925C3.49939 5.49264 3.85071 5.84396 4.2841 5.84396H8.99234C9.42572 5.84396 9.77704 5.49264 9.77704 5.05925V1.13572C9.77704 0.702338 9.42572 0.351013 8.99234 0.351013H4.2841Z" fill="#272F43"/>
<path d="M17.8046 8.82091H17.2644V8.22048C17.2644 7.69117 17.1644 7.16707 16.9702 6.67821C16.776 6.18934 16.4913 5.74533 16.1325 5.37161C15.7737 4.99789 15.3479 4.70182 14.8794 4.50036C14.4109 4.2989 13.909 4.19601 13.4023 4.19759H12.4253V3.9334C12.4253 3.427 12.2328 2.94135 11.8901 2.58327C11.5473 2.22519 11.0825 2.02403 10.5978 2.02403H9.40238C9.32027 2.03962 9.24602 2.08483 9.19255 2.15176C9.13908 2.2187 9.10979 2.30311 9.10979 2.39029C9.10979 2.47747 9.13908 2.56189 9.19255 2.62882C9.24602 2.69576 9.32027 2.74096 9.40238 2.75656H10.6093C10.9141 2.75656 11.2065 2.88307 11.422 3.10828C11.6376 3.33348 11.7587 3.63893 11.7587 3.95742V12.5436C11.7587 12.8621 11.6376 13.1675 11.422 13.3927C11.2065 13.6179 10.9141 13.7444 10.6093 13.7444H7.16101C7.12305 13.2254 6.8989 12.7405 6.5334 12.3867C6.1679 12.0329 5.68802 11.8363 5.18977 11.8363C4.69151 11.8363 4.21163 12.0329 3.84613 12.3867C3.48064 12.7405 3.25648 13.2254 3.21852 13.7444H2.82772C2.52287 13.7444 2.23051 13.6179 2.01496 13.3927C1.7994 13.1675 1.6783 12.8621 1.6783 12.5436V3.9334C1.6783 3.61491 1.7994 3.30947 2.01496 3.08426C2.23051 2.85906 2.52287 2.73254 2.82772 2.73254H3.67828C3.76038 2.71694 3.83464 2.67174 3.88811 2.60481C3.94158 2.53787 3.97086 2.45346 3.97086 2.36628C3.97086 2.27909 3.94158 2.19468 3.88811 2.12775C3.83464 2.06081 3.76038 2.01561 3.67828 2.00001H2.82772C2.58577 1.99999 2.34623 2.05016 2.12298 2.14762C1.89974 2.24507 1.69724 2.38787 1.52723 2.56772C1.35722 2.74757 1.22309 2.9609 1.13261 3.19534C1.04213 3.42977 0.997101 3.68064 1.00014 3.9334V12.5196C1.00014 13.026 1.19269 13.5116 1.53543 13.8697C1.87816 14.2278 2.34301 14.4289 2.82772 14.4289H3.26449C3.37476 14.8748 3.62369 15.2698 3.97219 15.5518C4.32068 15.8337 4.74898 15.9867 5.18977 15.9867C5.63055 15.9867 6.05885 15.8337 6.40734 15.5518C6.75584 15.2698 7.00478 14.8748 7.11504 14.4289H12.8621C12.9679 14.8773 13.2145 15.2757 13.5624 15.5605C13.9104 15.8453 14.3396 16 14.7816 16C15.2236 16 15.6529 15.8453 16.0009 15.5605C16.3488 15.2757 16.5954 14.8773 16.7012 14.4289H17.8506C18.1554 14.4289 18.4478 14.3024 18.6633 14.0772C18.8789 13.852 19 13.5466 19 13.2281V9.97373C18.9941 9.81599 18.9585 9.66102 18.8952 9.51768C18.8319 9.37434 18.7421 9.24545 18.6311 9.13837C18.5201 9.0313 18.3899 8.94815 18.2481 8.89367C18.1063 8.8392 17.9556 8.81447 17.8046 8.82091ZM5.16103 15.2695C4.9063 15.2601 4.65985 15.1726 4.45239 15.0179C4.24493 14.8631 4.08563 14.6481 3.99433 14.3994C3.90304 14.1508 3.88379 13.8796 3.93898 13.6196C3.99417 13.3596 4.12135 13.1223 4.3047 12.9373C4.48804 12.7523 4.71944 12.6278 4.97005 12.5792C5.22067 12.5306 5.47943 12.5602 5.71409 12.6641C5.94876 12.7681 6.14895 12.9419 6.28974 13.1639C6.43053 13.3859 6.50569 13.6463 6.50585 13.9126C6.50587 14.0928 6.47153 14.2712 6.40483 14.4375C6.33812 14.6037 6.24039 14.7544 6.11733 14.8807C5.99428 15.007 5.84837 15.1065 5.68813 15.1732C5.52788 15.24 5.35651 15.2727 5.18402 15.2695H5.16103ZM14.7242 15.2695C14.4673 15.2695 14.2162 15.1899 14.0026 15.0408C13.789 14.8917 13.6225 14.6798 13.5242 14.4319C13.4259 14.1839 13.4002 13.9111 13.4503 13.6478C13.5004 13.3846 13.6241 13.1428 13.8058 12.953C13.9874 12.7633 14.2188 12.634 14.4708 12.5817C14.7227 12.5293 14.9839 12.5562 15.2212 12.6589C15.4585 12.7616 15.6614 12.9355 15.8041 13.1587C15.9468 13.3818 16.023 13.6442 16.023 13.9126C16.0201 14.2674 15.8855 14.6072 15.6475 14.8604C15.4095 15.1135 15.0867 15.2602 14.7472 15.2695H14.7242ZM18.1724 13.2761C18.1724 13.3313 18.162 13.386 18.1418 13.4369C18.1216 13.4879 18.0919 13.5343 18.0546 13.5733C18.0172 13.6123 17.9729 13.6433 17.9241 13.6644C17.8753 13.6855 17.823 13.6964 17.7701 13.6964H16.6897C16.6517 13.1774 16.4276 12.6924 16.0621 12.3386C15.6966 11.9849 15.2167 11.7883 14.7184 11.7883C14.2202 11.7883 13.7403 11.9849 13.3748 12.3386C13.0093 12.6924 12.7851 13.1774 12.7472 13.6964H12.0001C12.2608 13.3555 12.4027 12.9319 12.4024 12.4955V4.91811H13.4023C14.2397 4.92127 15.042 5.27021 15.6341 5.88884C16.2262 6.50747 16.5602 7.34561 16.5632 8.22048V10.406C16.5632 10.5016 16.5996 10.5932 16.6642 10.6608C16.7289 10.7283 16.8166 10.7663 16.9081 10.7663C16.9995 10.7663 17.0872 10.7283 17.1519 10.6608C17.2166 10.5932 17.2529 10.5016 17.2529 10.406V9.54142H17.7931C17.9009 9.54455 18.0032 9.59148 18.0783 9.67221C18.1534 9.75295 18.1954 9.86113 18.1954 9.97373L18.1724 13.2761Z" fill="#272F43"/>
<path fill-rule="evenodd" clip-rule="evenodd" d="M8.99234 0.939543H4.2841C4.17575 0.939543 4.08792 1.02737 4.08792 1.13572V5.05925C4.08792 5.1676 4.17575 5.25543 4.2841 5.25543H8.99234C9.10068 5.25543 9.18851 5.1676 9.18851 5.05925V1.13572C9.18851 1.02737 9.10068 0.939543 8.99234 0.939543ZM4.2841 0.351013C3.85071 0.351013 3.49939 0.702338 3.49939 1.13572V5.05925C3.49939 5.49264 3.85071 5.84396 4.2841 5.84396H8.99234C9.42572 5.84396 9.77704 5.49264 9.77704 5.05925V1.13572C9.77704 0.702338 9.42572 0.351013 8.99234 0.351013H4.2841Z" stroke="#272F43" stroke-width="0.5"/>
<path d="M17.8046 8.82091H17.2644V8.22048C17.2644 7.69117 17.1644 7.16707 16.9702 6.67821C16.776 6.18934 16.4913 5.74533 16.1325 5.37161C15.7737 4.99789 15.3479 4.70182 14.8794 4.50036C14.4109 4.2989 13.909 4.19601 13.4023 4.19759H12.4253V3.9334C12.4253 3.427 12.2328 2.94135 11.8901 2.58327C11.5473 2.22519 11.0825 2.02403 10.5978 2.02403H9.40238C9.32027 2.03962 9.24602 2.08483 9.19255 2.15176C9.13908 2.2187 9.10979 2.30311 9.10979 2.39029C9.10979 2.47747 9.13908 2.56189 9.19255 2.62882C9.24602 2.69576 9.32027 2.74096 9.40238 2.75656H10.6093C10.9141 2.75656 11.2065 2.88307 11.422 3.10828C11.6376 3.33348 11.7587 3.63893 11.7587 3.95742V12.5436C11.7587 12.8621 11.6376 13.1675 11.422 13.3927C11.2065 13.6179 10.9141 13.7444 10.6093 13.7444H7.16101C7.12305 13.2254 6.8989 12.7405 6.5334 12.3867C6.1679 12.0329 5.68802 11.8363 5.18977 11.8363C4.69151 11.8363 4.21163 12.0329 3.84613 12.3867C3.48064 12.7405 3.25648 13.2254 3.21852 13.7444H2.82772C2.52287 13.7444 2.23051 13.6179 2.01496 13.3927C1.7994 13.1675 1.6783 12.8621 1.6783 12.5436V3.9334C1.6783 3.61491 1.7994 3.30947 2.01496 3.08426C2.23051 2.85906 2.52287 2.73254 2.82772 2.73254H3.67828C3.76038 2.71694 3.83464 2.67174 3.88811 2.60481C3.94158 2.53787 3.97086 2.45346 3.97086 2.36628C3.97086 2.27909 3.94158 2.19468 3.88811 2.12775C3.83464 2.06081 3.76038 2.01561 3.67828 2.00001H2.82772C2.58577 1.99999 2.34623 2.05016 2.12298 2.14762C1.89974 2.24507 1.69724 2.38787 1.52723 2.56772C1.35722 2.74757 1.22309 2.9609 1.13261 3.19534C1.04213 3.42977 0.997101 3.68064 1.00014 3.9334V12.5196C1.00014 13.026 1.19269 13.5116 1.53543 13.8697C1.87816 14.2278 2.34301 14.4289 2.82772 14.4289H3.26449C3.37476 14.8748 3.62369 15.2698 3.97219 15.5518C4.32068 15.8337 4.74898 15.9867 5.18977 15.9867C5.63055 15.9867 6.05885 15.8337 6.40734 15.5518C6.75584 15.2698 7.00478 14.8748 7.11504 14.4289H12.8621C12.9679 14.8773 13.2145 15.2757 13.5624 15.5605C13.9104 15.8453 14.3396 16 14.7816 16C15.2236 16 15.6529 15.8453 16.0009 15.5605C16.3488 15.2757 16.5954 14.8773 16.7012 14.4289H17.8506C18.1554 14.4289 18.4478 14.3024 18.6633 14.0772C18.8789 13.852 19 13.5466 19 13.2281V9.97373C18.9941 9.81599 18.9585 9.66102 18.8952 9.51768C18.8319 9.37434 18.7421 9.24545 18.6311 9.13837C18.5201 9.0313 18.3899 8.94815 18.2481 8.89367C18.1063 8.8392 17.9556 8.81447 17.8046 8.82091ZM5.16103 15.2695C4.9063 15.2601 4.65985 15.1726 4.45239 15.0179C4.24493 14.8631 4.08563 14.6481 3.99433 14.3994C3.90304 14.1508 3.88379 13.8796 3.93898 13.6196C3.99417 13.3596 4.12135 13.1223 4.3047 12.9373C4.48804 12.7523 4.71944 12.6278 4.97005 12.5792C5.22067 12.5306 5.47943 12.5602 5.71409 12.6641C5.94876 12.7681 6.14895 12.9419 6.28974 13.1639C6.43053 13.3859 6.50569 13.6463 6.50585 13.9126C6.50587 14.0928 6.47153 14.2712 6.40483 14.4375C6.33812 14.6037 6.24039 14.7544 6.11733 14.8807C5.99428 15.007 5.84837 15.1065 5.68813 15.1732C5.52788 15.24 5.35651 15.2727 5.18402 15.2695H5.16103ZM14.7242 15.2695C14.4673 15.2695 14.2162 15.1899 14.0026 15.0408C13.789 14.8917 13.6225 14.6798 13.5242 14.4319C13.4259 14.1839 13.4002 13.9111 13.4503 13.6478C13.5004 13.3846 13.6241 13.1428 13.8058 12.953C13.9874 12.7633 14.2188 12.634 14.4708 12.5817C14.7227 12.5293 14.9839 12.5562 15.2212 12.6589C15.4585 12.7616 15.6614 12.9355 15.8041 13.1587C15.9468 13.3818 16.023 13.6442 16.023 13.9126C16.0201 14.2674 15.8855 14.6072 15.6475 14.8604C15.4095 15.1135 15.0867 15.2602 14.7472 15.2695H14.7242ZM18.1724 13.2761C18.1724 13.3313 18.162 13.386 18.1418 13.4369C18.1216 13.4879 18.0919 13.5343 18.0546 13.5733C18.0172 13.6123 17.9729 13.6433 17.9241 13.6644C17.8753 13.6855 17.823 13.6964 17.7701 13.6964H16.6897C16.6517 13.1774 16.4276 12.6924 16.0621 12.3386C15.6966 11.9849 15.2167 11.7883 14.7184 11.7883C14.2202 11.7883 13.7403 11.9849 13.3748 12.3386C13.0093 12.6924 12.7851 13.1774 12.7472 13.6964H12.0001C12.2608 13.3555 12.4027 12.9319 12.4024 12.4955V4.91811H13.4023C14.2397 4.92127 15.042 5.27021 15.6341 5.88884C16.2262 6.50747 16.5602 7.34561 16.5632 8.22048V10.406C16.5632 10.5016 16.5996 10.5932 16.6642 10.6608C16.7289 10.7283 16.8166 10.7663 16.9081 10.7663C16.9995 10.7663 17.0872 10.7283 17.1519 10.6608C17.2166 10.5932 17.2529 10.5016 17.2529 10.406V9.54142H17.7931C17.9009 9.54455 18.0032 9.59148 18.0783 9.67221C18.1534 9.75295 18.1954 9.86113 18.1954 9.97373L18.1724 13.2761Z" stroke="#272F43" stroke-width="0.5"/>
</svg>
