<svg width="86" height="60" viewBox="0 0 86 60" fill="none" xmlns="http://www.w3.org/2000/svg">
<path d="M85.5271 5.25708C85.1754 4.2699 84.6371 3.36329 83.943 2.589C82.5416 1.02746 80.5918 0.0989685 78.5219 0.00746308C76.452 -0.0840423 74.4313 0.668919 72.9035 2.10097L31.5133 40.9273L13.3514 22.3422C11.8854 20.841 9.89664 19.9972 7.82267 19.9964C5.7487 19.9957 3.75939 20.838 2.29235 22.3382C0.825317 23.8383 0.000733621 25.8734 0 27.9957C-0.000732642 30.118 0.822447 32.1536 2.28845 33.6548L25.7434 57.6563C27.1682 59.1144 29.0881 59.9534 31.1027 59.9981C33.1173 60.0428 35.0709 59.2899 36.5561 57.8963L83.4661 13.8937C84.2228 13.1835 84.8354 12.3277 85.269 11.3752C85.7025 10.4227 85.9484 9.39218 85.9927 8.34242C86.037 7.29266 85.8788 6.24426 85.5271 5.25708Z" fill="white"/>
</svg>
