<svg width="58" height="58" viewBox="0 0 58 58" fill="none" xmlns="http://www.w3.org/2000/svg">
<path d="M58 53.8571H0V58H58V53.8571Z" fill="#1C2439"/>
<path d="M51.7857 18.6423C52.3351 18.6423 52.862 18.424 53.2504 18.0355C53.6389 17.6471 53.8571 17.1202 53.8571 16.5708V10.3564C53.857 9.93071 53.7256 9.51539 53.481 9.16698C53.2364 8.81857 52.8903 8.55399 52.49 8.40925L29.7043 0.123406C29.2492 -0.0411354 28.7508 -0.0411354 28.2957 0.123406L5.51 8.40925C5.10965 8.55399 4.76363 8.81857 4.519 9.16698C4.27438 9.51539 4.14304 9.93071 4.14286 10.3564V16.5708C4.14286 17.1202 4.3611 17.6471 4.74957 18.0355C5.13803 18.424 5.66491 18.6423 6.21429 18.6423H8.28571V45.5712H4.14286V49.7142H53.8571V45.5712H49.7143V18.6423H51.7857ZM8.28571 11.8064L29 4.26633L49.7143 11.8064V14.4993H8.28571V11.8064ZM33.1429 45.5712H24.8571V18.6423H33.1429V45.5712ZM12.4286 18.6423H20.7143V45.5712H12.4286V18.6423ZM45.5714 45.5712H37.2857V18.6423H45.5714V45.5712Z" fill="#1C2439"/>
</svg>
