<svg width="114" height="114" viewBox="0 0 114 114" fill="none" xmlns="http://www.w3.org/2000/svg">
<path fill-rule="evenodd" clip-rule="evenodd" d="M9.61183 16.5752C9.17213 18.7894 9.49771 20.9383 9.76382 21.9023L0.730336 24.5803C0.154163 22.493 -0.406027 18.716 0.408855 14.6125C1.25744 10.3392 3.62798 5.67656 8.84569 2.5547C14.0355 -0.550476 19.1835 -0.423332 23.234 0.823992C27.1367 2.02576 30.1977 4.30388 31.7817 6.00163L25.0271 12.77C24.4823 12.1861 22.798 10.8476 20.5577 10.1577C18.4654 9.51343 16.0729 9.47396 13.5436 10.9873C11.0422 12.4839 10.0178 14.5307 9.61183 16.5752Z" fill="#1C2439"/>
<path fill-rule="evenodd" clip-rule="evenodd" d="M95.7858 10.2528C93.6083 10.3857 91.6896 11.2678 90.8599 11.7837L86.0258 3.43422C87.8222 2.31723 91.1976 0.778911 95.2333 0.532548C99.4359 0.275995 104.395 1.44214 108.656 5.85712C112.893 10.2485 114.107 15.4345 113.993 19.812C113.883 24.0297 112.552 27.6834 111.379 29.7084L103.322 24.6987C103.725 24.0023 104.537 21.9699 104.6 19.5488C104.659 17.2876 104.077 14.8824 102.012 12.7423C99.9694 10.6257 97.7965 10.1301 95.7858 10.2528Z" fill="#1C2439"/>
<path fill-rule="evenodd" clip-rule="evenodd" d="M56.2252 22.7147C36.7658 22.7147 20.9909 39.0625 20.9909 59.2288C20.9909 70.6523 26.0528 80.8505 33.9789 87.546C34.011 87.5724 34.0429 87.5993 34.0745 87.6265C40.1263 92.7025 47.8331 95.7429 56.2252 95.7429C64.6187 95.7429 72.3267 92.7015 78.3789 87.624C78.4087 87.5985 78.4386 87.5733 78.4687 87.5484C86.3965 80.853 91.4596 70.6537 91.4596 59.2288C91.4596 39.0625 75.6847 22.7147 56.2252 22.7147ZM90.5839 92.4323C98.4134 83.7349 103.204 72.0617 103.204 59.2288C103.204 32.3405 82.1712 10.5433 56.2252 10.5433C30.2793 10.5433 9.24609 32.3405 9.24609 59.2288C9.24609 72.0617 14.0371 83.7349 21.8666 92.4323L10.9879 103.589C8.6826 105.953 8.66311 109.806 10.9444 112.195C13.2256 114.584 16.9438 114.604 19.2491 112.24L30.9297 100.261C38.2315 105.106 46.9119 107.914 56.2252 107.914C65.5386 107.914 74.219 105.106 81.5209 100.261L93.2014 112.24C95.5067 114.604 99.2249 114.584 101.506 112.195C103.787 109.806 103.768 105.953 101.463 103.589L90.5839 92.4323ZM56.2252 34.886C59.4685 34.886 62.0976 37.6106 62.0976 40.9717V59.2288C62.0976 62.5899 59.4685 65.3145 56.2252 65.3145C52.982 65.3145 50.3528 62.5899 50.3528 59.2288V40.9717C50.3528 37.6106 52.982 34.886 56.2252 34.886ZM50.3528 77.4859C50.3528 74.1249 52.982 71.4002 56.2252 71.4002H56.284C59.5272 71.4002 62.1564 74.1249 62.1564 77.4859C62.1564 80.8469 59.5272 83.5716 56.284 83.5716H56.2252C52.982 83.5716 50.3528 80.8469 50.3528 77.4859Z" fill="#1C2439"/>
</svg>
