<svg width="55" height="55" viewBox="0 0 55 55" fill="none" xmlns="http://www.w3.org/2000/svg">
<path fill-rule="evenodd" clip-rule="evenodd" d="M27.5 3.208C14.0839 3.208 3.208 14.0839 3.208 27.5C3.208 40.9162 14.0839 51.792 27.5 51.792C40.9162 51.792 51.792 40.9162 51.792 27.5C51.792 14.0839 40.9162 3.208 27.5 3.208ZM0.948276 27.5C0.948276 12.8359 12.8359 0.948276 27.5 0.948276C42.1642 0.948276 54.0517 12.8359 54.0517 27.5C54.0517 42.1642 42.1642 54.0517 27.5 54.0517C12.8359 54.0517 0.948276 42.1642 0.948276 27.5ZM42.4222 18.2271C42.8634 18.6684 42.8634 19.3837 42.4222 19.825L22.6496 39.5975C22.2083 40.0388 21.493 40.0388 21.0517 39.5975L12.5776 31.1236C12.1364 30.6823 12.1364 29.967 12.5776 29.5257C13.0189 29.0845 13.7343 29.0845 14.1755 29.5257L21.8506 37.2007L40.8243 18.2271C41.2656 17.7859 41.981 17.7859 42.4222 18.2271Z" fill="#1C2439"/>
<path fill-rule="evenodd" clip-rule="evenodd" d="M0 27.5C0 12.3122 12.3122 0 27.5 0C42.6879 0 55 12.3122 55 27.5C55 42.6879 42.6879 55 27.5 55C12.3122 55 0 42.6879 0 27.5ZM27.5 1.89655C13.3596 1.89655 1.89655 13.3596 1.89655 27.5C1.89655 41.6405 13.3596 53.1034 27.5 53.1034C41.6405 53.1034 53.1034 41.6405 53.1034 27.5C53.1034 13.3596 41.6405 1.89655 27.5 1.89655ZM27.5 4.15627C14.6076 4.15627 4.15627 14.6076 4.15627 27.5C4.15627 40.3925 14.6076 50.8437 27.5 50.8437C40.3925 50.8437 50.8437 40.3925 50.8437 27.5C50.8437 14.6076 40.3925 4.15627 27.5 4.15627ZM2.25972 27.5C2.25972 13.5602 13.5602 2.25972 27.5 2.25972C41.4399 2.25972 52.7403 13.5602 52.7403 27.5C52.7403 41.4399 41.4399 52.7403 27.5 52.7403C13.5602 52.7403 2.25972 41.4399 2.25972 27.5ZM40.1538 17.5566C40.9654 16.745 42.2812 16.745 43.0927 17.5566C43.9043 18.3681 43.9043 19.6839 43.0927 20.4955L23.3201 40.2681C22.5085 41.0796 21.1927 41.0796 20.3812 40.2681L11.9071 31.7941C11.0956 30.9826 11.0955 29.6668 11.9071 28.8552C12.7187 28.0436 14.0345 28.0436 14.846 28.8552L21.8506 35.8597L40.1538 17.5566ZM41.7517 18.8976C41.6807 18.8267 41.5658 18.8267 41.4949 18.8976L22.5212 37.8713C22.1508 38.2416 21.5504 38.2416 21.1801 37.8713L13.505 30.1963C13.4341 30.1253 13.3191 30.1253 13.2482 30.1963C13.1773 30.2672 13.1773 30.3821 13.2482 30.4531L21.7222 38.927C21.7932 38.9979 21.9081 38.9979 21.979 38.927L41.7517 19.1544C41.8226 19.0835 41.8226 18.9686 41.7517 18.8976Z" fill="#1C2439"/>
</svg>
