<svg width="126" height="98" viewBox="0 0 126 98" fill="none" xmlns="http://www.w3.org/2000/svg">
<path fill-rule="evenodd" clip-rule="evenodd" d="M72.3699 72.3333H53.6301V91H72.3699V72.3333ZM46.6027 65.3333V98H79.3973V65.3333H46.6027Z" fill="#272F43"/>
<path fill-rule="evenodd" clip-rule="evenodd" d="M72.3699 7.38889H53.6301V27.0926H72.3699V7.38889ZM46.6027 0V34.4815H79.3973V0H46.6027Z" fill="#272F43"/>
<path fill-rule="evenodd" clip-rule="evenodd" d="M118.973 72.3333H100.233V91H118.973V72.3333ZM93.2055 65.3333V98H126V65.3333H93.2055Z" fill="#272F43"/>
<path fill-rule="evenodd" clip-rule="evenodd" d="M25.7671 72.3333H7.0274V91H25.7671V72.3333ZM0 65.3333V98H32.7945V65.3333H0Z" fill="#272F43"/>
<path fill-rule="evenodd" clip-rule="evenodd" d="M12.0822 45.3704H113.918V67.1481H106.813V52.2476H19.187V67.1481H12.0822V45.3704Z" fill="#272F43"/>
<path fill-rule="evenodd" clip-rule="evenodd" d="M60.411 67.1481V29.037H67.3151V67.1481H60.411Z" fill="#272F43"/>
</svg>
