<svg width="77" height="93" viewBox="0 0 77 93" fill="none" xmlns="http://www.w3.org/2000/svg">
<path d="M71.0769 66C71.0769 63.7665 70.0892 61.7805 68.5552 60.405C69.2082 59.4435 69.5962 58.281 69.5962 57.0285V56.226C69.5962 55.5825 69.494 54.948 69.2926 54.3375L62.9978 35.205C61.3823 30.297 56.866 27 51.7603 27H46.8589C49.8842 24.5235 51.8269 20.739 51.8269 16.5V11.631C51.8269 5.217 46.6753 0 40.345 0H36.655C30.3232 0 25.1731 5.217 25.1731 11.631V16.5C25.1731 20.739 27.1158 24.5235 30.1411 27H25.2397C20.134 27 15.6177 30.297 14.0022 35.205L7.7074 54.336C7.50602 54.9465 7.40385 55.5825 7.40385 56.2245V57.027C7.40385 58.281 7.79033 59.4435 8.44483 60.405C6.91075 61.7805 5.92308 63.7665 5.92308 66H0V90H23.6923V93H53.3077V90H77V66H71.0769ZM68.1154 66H59.2308C59.2308 64.5075 59.9608 63.1905 61.0684 62.3715C61.868 62.775 62.7624 63 63.7012 63C64.6297 63 65.4974 62.7615 66.2792 62.373C67.3868 63.192 68.1154 64.5075 68.1154 66ZM66.4836 55.287C66.5843 55.59 66.6346 55.9065 66.6346 56.2245V57.027C66.6346 57.741 66.374 58.389 65.9579 58.902C65.2338 58.6635 64.4757 58.5 63.6731 58.5C62.8809 58.5 62.1331 58.6605 61.4164 58.8945C61.2372 58.668 61.0877 58.413 60.9766 58.1325L55.4356 44.1L61.751 40.902L66.4836 55.287ZM58.831 60.372C57.2747 61.7475 56.2692 63.7485 56.2692 66H53.3077V46.791L58.2253 59.247C58.3852 59.652 58.597 60.021 58.831 60.372ZM28.1346 11.6295C28.1346 6.8715 31.9565 3 36.655 3H40.345C45.0435 3 48.8654 6.8715 48.8654 11.631V12.2115C48.0613 11.5245 47.3387 10.7265 46.7301 9.801C45.7824 8.3595 44.198 7.5 42.4877 7.5H34.5108C32.802 7.5 31.2161 8.3595 30.2195 9.8775C29.6406 10.758 28.9298 11.538 28.1346 12.2145V11.6295ZM28.1346 16.5V15.8565C29.9456 14.775 31.5211 13.3065 32.7368 11.4615C33.1322 10.86 33.7956 10.5 34.5123 10.5H42.4892C43.2044 10.5 43.8693 10.86 44.3165 11.541C45.4848 13.3155 47.0559 14.7765 48.8654 15.8565V16.5C48.8654 22.2885 44.2143 27 38.5 27C32.7857 27 28.1346 22.2885 28.1346 16.5ZM44.0588 30C43.2414 31.743 41.0706 33 38.5 33C35.9294 33 33.7586 31.743 32.9412 30H44.0588ZM10.3654 56.226C10.3654 55.9065 10.4157 55.59 10.5164 55.287L15.249 40.902L21.5644 44.1015L16.0234 58.1325C15.9123 58.413 15.7628 58.6695 15.5821 58.896C14.8669 58.6605 14.1191 58.5 13.3269 58.5C12.5243 58.5 11.7662 58.6635 11.0421 58.9035C10.626 58.3905 10.3654 57.7425 10.3654 57.0285V56.226ZM10.7208 62.373C11.5041 62.7615 12.3703 63 13.2988 63C14.2376 63 15.132 62.775 15.9301 62.3715C17.0392 63.1905 17.7692 64.5075 17.7692 66H8.88462C8.88462 64.5075 9.61315 63.192 10.7208 62.373ZM23.6923 87H2.96154V69H5.92308V72H8.88462V69H17.7692V72H20.7308V69H23.6923V87ZM23.6923 66H20.7308C20.7308 63.747 19.7253 61.7475 18.1676 60.372C18.4015 60.021 18.6133 59.652 18.7747 59.2455L23.6923 46.7895V66ZM37.0192 90H26.6538V87H37.0192V90ZM50.3462 90H39.9808V87H50.3462V90ZM50.3462 84H39.9808V67.5H37.0192V84H26.6538V68.8485C30.0285 68.151 32.5769 65.121 32.5769 61.5H44.4231C44.4231 65.121 46.9715 68.151 50.3462 68.8485V84ZM26.6538 65.724V61.5H29.6154C29.6154 63.453 28.373 65.103 26.6538 65.724ZM50.3462 65.724C48.6255 65.103 47.3846 63.453 47.3846 61.5H50.3462V65.724ZM50.3462 37.5V58.5H26.6538V37.5H23.6923V38.7105L22.6676 41.304L16.1937 38.025L16.8097 36.153C18.0224 32.472 21.4104 30 25.2397 30H29.7946C30.6193 33.4185 34.2087 36 38.5 36C42.7913 36 46.3792 33.4185 47.2054 30H51.7603C55.5896 30 58.9776 32.472 60.1888 36.1545L60.8048 38.0265L54.3309 41.3055L53.3077 38.7105V37.5H50.3462ZM74.0385 87H53.3077V69H56.2692V72H59.2308V69H68.1154V72H71.0769V69H74.0385V87Z" fill="black"/>
</svg>
