<svg width="72" height="58" viewBox="0 0 72 58" fill="none" xmlns="http://www.w3.org/2000/svg">
<path d="M17.0905 44.3933C16.2973 44.3945 15.5223 44.6323 14.8635 45.0765C14.2046 45.5206 13.6916 46.1513 13.3892 46.8887C13.0868 47.6261 13.0086 48.4371 13.1646 49.2191C13.3206 50.0012 13.7037 50.7192 14.2654 51.2823C14.8272 51.8454 15.5424 52.2284 16.3206 52.3827C17.0988 52.5371 17.9051 52.456 18.6374 52.1496C19.3698 51.8432 19.9953 51.3253 20.435 50.6614C20.8746 49.9975 21.1086 49.2174 21.1074 48.4198C21.104 47.3507 20.6793 46.3266 19.9264 45.5718C19.1735 44.8171 18.1537 44.3933 17.0905 44.3933ZM17.0905 49.9186C16.7975 49.9174 16.5114 49.8289 16.2683 49.6644C16.0252 49.5 15.836 49.2668 15.7244 48.9943C15.6129 48.7219 15.584 48.4223 15.6415 48.1334C15.6989 47.8445 15.8402 47.5791 16.0474 47.3708C16.2546 47.1625 16.5184 47.0204 16.8057 46.9627C17.0931 46.9049 17.391 46.9339 17.6619 47.0461C17.9329 47.1582 18.1647 47.3485 18.3283 47.593C18.4919 47.8375 18.5798 48.1251 18.5811 48.4198C18.5817 48.6168 18.5436 48.812 18.469 48.9941C18.3943 49.1763 18.2845 49.3418 18.146 49.4811C18.0074 49.6204 17.8429 49.7308 17.6617 49.8059C17.4806 49.881 17.2865 49.9193 17.0905 49.9186Z" fill="black"/>
<path d="M57.0063 44.3933C56.2131 44.3945 55.4381 44.6323 54.7793 45.0765C54.1204 45.5206 53.6074 46.1513 53.305 46.8887C53.0026 47.6261 52.9244 48.4371 53.0804 49.2191C53.2364 50.0012 53.6195 50.7192 54.1812 51.2823C54.743 51.8454 55.4582 52.2284 56.2364 52.3827C57.0146 52.5371 57.8209 52.456 58.5532 52.1496C59.2856 51.8432 59.9111 51.3253 60.3508 50.6614C60.7904 49.9975 61.0244 49.2174 61.0232 48.4198C61.0198 47.3507 60.5951 46.3266 59.8422 45.5718C59.0893 44.8171 58.0695 44.3933 57.0063 44.3933ZM57.0063 49.9186C56.7133 49.9174 56.4272 49.8289 56.1841 49.6644C55.941 49.5 55.7518 49.2668 55.6402 48.9943C55.5287 48.7219 55.4998 48.4223 55.5573 48.1334C55.6147 47.8445 55.756 47.5791 55.9632 47.3708C56.1703 47.1625 56.4342 47.0204 56.7215 46.9627C57.0089 46.9049 57.3068 46.9339 57.5777 47.0461C57.8486 47.1582 58.0805 47.3485 58.2441 47.593C58.4076 47.8375 58.4956 48.1251 58.4968 48.4198C58.4975 48.6168 58.4594 48.812 58.3847 48.9941C58.3101 49.1763 58.2003 49.3418 58.0618 49.4811C57.9232 49.6204 57.7586 49.7308 57.5775 49.8059C57.3964 49.881 57.2022 49.9193 57.0063 49.9186Z" fill="black"/>
<path d="M60.6568 19.7642L55.4653 14.2389C55.3472 14.1116 55.2045 14.0099 55.0459 13.94C54.8874 13.8701 54.7163 13.8335 54.5432 13.8324H48.7326C48.3976 13.8324 48.0763 13.9662 47.8394 14.2044C47.6026 14.4426 47.4695 14.7657 47.4695 15.1026V23.4097C47.4695 23.7465 47.6026 24.0696 47.8394 24.3078C48.0763 24.546 48.3976 24.6799 48.7326 24.6799H59.7347C60.0698 24.6799 60.391 24.546 60.6279 24.3078C60.8648 24.0696 60.9979 23.7465 60.9979 23.4097V20.6406C60.9963 20.3161 60.8747 20.0037 60.6568 19.7642ZM58.4716 22.1395H49.9958V16.3728H54L58.4716 21.136V22.1395Z" fill="black"/>
<path d="M71.3937 24.972L58.3579 9.25971C58.1106 8.96132 57.8018 8.72047 57.4528 8.5538C57.1039 8.38713 56.7231 8.29861 56.3368 8.29436H44.6021C43.903 8.2977 43.2334 8.57847 42.739 9.0756C42.2446 9.57273 41.9654 10.246 41.9621 10.9491V27.6648H40.3705V15.1026C40.3705 14.7657 40.2374 14.4426 40.0006 14.2044C39.7637 13.9662 39.4424 13.8324 39.1074 13.8324H30.7326V1.27019C30.7326 0.933317 30.5996 0.610239 30.3627 0.372031C30.1258 0.133824 29.8045 0 29.4695 0H15.7137C15.3787 0 15.0574 0.133824 14.8205 0.372031C14.5836 0.610239 14.4505 0.933317 14.4505 1.27019V13.8324H6.08842C5.75341 13.8324 5.43212 13.9662 5.19523 14.2044C4.95835 14.4426 4.82526 14.7657 4.82526 15.1026V27.6648H1.26316C0.928148 27.6648 0.606858 27.7986 0.36997 28.0368C0.133082 28.2751 0 28.5981 0 28.935V42.7674C0 43.1043 0.133082 43.4274 0.36997 43.6656C0.606858 43.9038 0.928148 44.0376 1.26316 44.0376H8.64C7.9786 45.3255 7.61675 46.7477 7.58176 48.1967C7.54676 49.6458 7.83954 51.084 8.43799 52.4026C9.03644 53.7213 9.92494 54.8861 11.0364 55.809C12.1479 56.732 13.4534 57.389 14.8542 57.7305C16.2551 58.0721 17.7149 58.0892 19.1233 57.7806C20.5317 57.4719 21.852 56.8457 22.9846 55.949C24.1172 55.0524 25.0324 53.9087 25.6613 52.6045C26.2901 51.3002 26.6161 49.8693 26.6147 48.4198C26.613 46.8934 26.2447 45.3901 25.5411 44.0376H48.5558C47.8936 45.3248 47.531 46.7464 47.4952 48.1951C47.4593 49.6438 47.7513 51.0818 48.3491 52.4004C48.9468 53.719 49.8347 54.8839 50.9457 55.807C52.0566 56.73 53.3616 57.3872 54.7622 57.7289C56.1627 58.0706 57.6221 58.0878 59.0302 57.7793C60.4383 57.4708 61.7583 56.8446 62.8905 55.948C64.0227 55.0515 64.9376 53.9079 65.566 52.6038C66.1944 51.2996 66.5199 49.8689 66.5179 48.4198C66.5205 46.8944 66.1565 45.391 65.4568 44.0376H70.7368C71.0719 44.0376 71.3931 43.9038 71.63 43.6656C71.8669 43.4274 72 43.1043 72 42.7674V26.6741C71.9992 26.0534 71.785 25.452 71.3937 24.972ZM37.8442 16.3728V27.6648H26.6147V16.3728H37.8442ZM16.9768 2.54039H28.2063V13.8324H16.9768V2.54039ZM24.0884 16.3728V27.6648H21.1074V16.3728H24.0884ZM7.35158 16.3728H18.5811V27.6648H7.35158V16.3728ZM17.0905 55.4567C15.7377 55.459 14.4134 55.0656 13.279 54.3245C12.1446 53.5833 11.249 52.5264 10.7014 51.2824C10.1539 50.0385 9.97791 48.6612 10.195 47.3185C10.4121 45.9757 11.0129 44.7255 11.9242 43.7201C11.9736 43.6677 12.02 43.6126 12.0632 43.5549C12.8644 42.7179 13.8594 42.0936 14.9593 41.738C16.0592 41.3824 17.2296 41.3065 18.3658 41.5172C19.502 41.7278 20.5686 42.2184 21.47 42.9451C22.3715 43.6717 23.0797 44.6117 23.5314 45.6811C23.9831 46.7504 24.1641 47.9156 24.0583 49.0725C23.9525 50.2294 23.5631 51.3419 22.9249 52.3104C22.2868 53.2789 21.4199 54.0732 20.4017 54.6222C19.3835 55.1713 18.2459 55.458 17.0905 55.4567ZM41.9621 41.4972H23.6463C21.8832 39.8008 19.5371 38.854 17.0968 38.854C14.6566 38.854 12.3105 39.8008 10.5474 41.4972H2.52632V30.2052H41.9621V41.4972ZM57.0063 55.4567C55.6235 55.4579 54.2714 55.0468 53.1209 54.2753C51.9705 53.5038 51.0734 52.4066 50.543 51.1225C50.0127 49.8383 49.873 48.4248 50.1415 47.0608C50.4101 45.6967 51.0748 44.4434 52.0517 43.4593C53.0287 42.4752 54.2738 41.8044 55.6298 41.5319C56.9858 41.2594 58.3917 41.3974 59.6697 41.9283C60.9478 42.4593 62.0405 43.3594 62.8098 44.5149C63.5791 45.6704 63.9903 47.0293 63.9916 48.4198C63.9926 50.2842 63.2574 52.0727 61.9475 53.3922C60.6377 54.7117 58.8604 55.4543 57.0063 55.4567ZM69.4737 35.9719H66.4926V32.9742H69.4737V35.9719ZM69.4737 30.4338H66.4926C65.8232 30.4358 65.1818 30.7041 64.7085 31.1801C64.2351 31.6561 63.9683 32.3011 63.9663 32.9742V35.9719C63.9683 36.645 64.2351 37.29 64.7085 37.766C65.1818 38.242 65.8232 38.5103 66.4926 38.5123H69.4737V41.4972H63.5495C61.7884 39.8017 59.4444 38.8552 57.0063 38.8552C54.5682 38.8552 52.2242 39.8017 50.4632 41.4972H44.4884V10.9491C44.4912 10.9197 44.5041 10.8922 44.5248 10.8714C44.5456 10.8505 44.5729 10.8376 44.6021 10.8348L56.4126 10.8856L69.4737 26.6741V30.4338Z" fill="black"/>
</svg>
