<svg width="20" height="20" viewBox="0 0 20 20" fill="none" xmlns="http://www.w3.org/2000/svg">
<path d="M9.01411 11.147C9.01411 10.6773 9.15269 10.2895 9.42985 9.98362C9.71855 9.67776 10.1458 9.34459 10.7117 8.98412C11.1852 8.68918 11.5374 8.42155 11.7684 8.18123C12.0109 7.94091 12.1321 7.65144 12.1321 7.31281C12.1321 6.43892 11.5201 6.00198 10.296 6.00198C9.66081 6.00198 9.17001 6.16037 8.82357 6.47715C8.47712 6.78301 8.3039 7.19811 8.3039 7.72244C8.3039 7.8863 8.32122 8.09384 8.35587 8.34509C8.20574 8.37786 8.04407 8.39424 7.87084 8.39424C7.35117 8.39424 6.90657 8.27408 6.53703 8.03376C6.17903 7.78252 6.00004 7.45481 6.00004 7.05064C6.00004 6.53723 6.19058 6.05659 6.57167 5.60873C6.95276 5.14994 7.47243 4.78946 8.13068 4.52729C8.78892 4.2542 9.51068 4.11766 10.296 4.11766C11.0928 4.11766 11.8088 4.24874 12.4439 4.51091C13.0791 4.76215 13.5756 5.12263 13.9336 5.59234C14.2916 6.05113 14.4706 6.58093 14.4706 7.18172C14.4706 7.5859 14.3667 7.94637 14.1588 8.26316C13.9625 8.56902 13.7315 8.83119 13.4659 9.04966C13.2003 9.25721 12.8481 9.50845 12.4093 9.80339C12.0051 10.0765 11.7106 10.2895 11.5258 10.4424C11.3526 10.5953 11.266 10.7647 11.266 10.9504V11.2781C11.266 12.0427 10.5154 12.425 9.01411 12.425V11.147ZM10.0708 15.8824C9.60884 15.8824 9.23353 15.7567 8.94482 15.5055C8.65612 15.2433 8.51177 14.9102 8.51177 14.506C8.51177 14.1018 8.65612 13.7686 8.94482 13.5065C9.23353 13.2443 9.60884 13.1132 10.0708 13.1132C10.5327 13.1132 10.9138 13.2443 11.214 13.5065C11.5143 13.7686 11.6644 14.1018 11.6644 14.506C11.6644 14.9102 11.5143 15.2433 11.214 15.5055C10.9138 15.7567 10.5327 15.8824 10.0708 15.8824Z" fill="#292D32"/>
<path fill-rule="evenodd" clip-rule="evenodd" d="M10 18.5C14.6944 18.5 18.5 14.6944 18.5 10C18.5 5.30558 14.6944 1.5 10 1.5C5.30558 1.5 1.5 5.30558 1.5 10C1.5 14.6944 5.30558 18.5 10 18.5ZM10 20C15.5228 20 20 15.5228 20 10C20 4.47715 15.5228 0 10 0C4.47715 0 0 4.47715 0 10C0 15.5228 4.47715 20 10 20Z" fill="#1C2439"/>
</svg>
