<svg width="78" height="78" viewBox="0 0 78 78" fill="none" xmlns="http://www.w3.org/2000/svg">
<path d="M0 0H19.5V19.5H0V0Z" fill="#1C2439"/>
<path d="M0 29.25H19.5V48.75H0V29.25Z" fill="#1C2439"/>
<path d="M0 58.5H19.5V78H0V58.5Z" fill="#1C2439"/>
<path d="M29.25 0H48.75V19.5H29.25V0Z" fill="#1C2439"/>
<path d="M29.25 34.4118C29.25 31.561 31.561 29.25 34.4118 29.25H43.5882C46.439 29.25 48.75 31.561 48.75 34.4118V43.5882C48.75 46.439 46.439 48.75 43.5882 48.75H34.4118C31.561 48.75 29.25 46.439 29.25 43.5882V34.4118Z" fill="#1C2439"/>
<path d="M29.25 58.5H48.75V78H29.25V58.5Z" fill="#1C2439"/>
<path d="M58.5 0H78V19.5H58.5V0Z" fill="#1C2439"/>
<path d="M58.5 29.25H78V48.75H58.5V29.25Z" fill="#1C2439"/>
<path d="M58.5 58.5H78V78H58.5V58.5Z" fill="#1C2439"/>
</svg>
