<svg width="107" height="101" viewBox="0 0 107 101" fill="none" xmlns="http://www.w3.org/2000/svg">
<path fill-rule="evenodd" clip-rule="evenodd" d="M47.6345 8.72683C45.0761 9.7256 41.9936 11.2485 37.5789 13.4354L27.6618 18.3478C22.2549 21.0261 18.4695 22.9065 15.6437 24.6878C12.9003 26.4172 11.3319 27.8924 10.2501 29.6266C9.16174 31.3712 8.51968 33.4522 8.18069 36.7003C7.83366 40.0255 7.82927 44.2451 7.82927 50.2262V50.7738C7.82927 56.7548 7.83366 60.9745 8.18069 64.2998C8.51968 67.548 9.16173 69.629 10.2501 71.3736C11.3319 73.1077 12.9002 74.5828 15.6437 76.3122C18.4695 78.0934 22.2548 79.9738 27.6617 82.6523L37.5788 87.5645C41.9936 89.7513 45.0761 91.2743 47.6346 92.2731C50.121 93.2437 51.8509 93.6098 53.5 93.6098C55.1491 93.6098 56.879 93.2437 59.3654 92.2731C61.9239 91.2743 65.0063 89.7514 69.4211 87.5645L79.3381 82.6523C84.7452 79.9739 88.5305 78.0934 91.3563 76.3122C94.0998 74.5828 95.6681 73.1077 96.7499 71.3736C97.8383 69.629 98.4803 67.548 98.8193 64.2998C99.1663 60.9745 99.1707 56.7548 99.1707 50.7738V50.2262C99.1707 44.2451 99.1663 40.0255 98.8193 36.7003C98.4803 33.4522 97.8383 31.3712 96.7499 29.6266C95.668 27.8924 94.0997 26.4172 91.3563 24.6878C88.5305 22.9065 84.7452 21.0261 79.3382 18.3478L69.4211 13.4354C65.0064 11.2485 61.9239 9.72559 59.3654 8.72683C56.8791 7.75623 55.1491 7.39024 53.5 7.39024C51.8509 7.39024 50.1209 7.75623 47.6345 8.72683ZM44.6424 1.89757C47.6793 0.712068 50.4668 0 53.5 0C56.5332 0 59.3207 0.712068 62.3576 1.89757C65.2849 3.04032 68.682 4.72312 72.8974 6.81131L83.1641 11.8969C88.339 14.4602 92.4938 16.5182 95.7044 18.542C99.036 20.6422 101.616 22.8624 103.496 25.8766C105.37 28.8804 106.209 32.128 106.611 35.9757C107 39.7052 107 44.2886 107 50.0355V50.9645C107 56.7114 107 61.2947 106.611 65.0243C106.209 68.8721 105.37 72.1198 103.496 75.1236C101.616 78.1378 99.0359 80.3579 95.7043 82.458C92.4946 84.4813 88.3411 86.5387 83.1681 89.1012L72.8954 94.1895C68.6809 96.2772 65.2845 97.9597 62.3576 99.1023C59.3208 100.288 56.5333 101 53.5 101C50.4667 101 47.6792 100.288 44.6424 99.1023C41.7156 97.9597 38.3192 96.2773 34.1048 94.1897L23.8305 89.1005C18.6582 86.5384 14.5052 84.4811 11.2957 82.458C7.96409 80.3579 5.38403 78.1378 3.50363 75.1236C1.62977 72.1198 0.790706 68.8721 0.389138 65.0243C-8.39212e-05 61.2948 -4.59483e-05 56.7115 1.0289e-06 50.9647V50.0353C-4.59483e-05 44.2884 -8.39212e-05 39.7052 0.389139 35.9758C0.790711 32.128 1.62978 28.8804 3.50361 25.8767C5.38399 22.8624 7.96402 20.6422 11.2957 18.542C14.506 16.5183 18.6603 14.4605 23.8344 11.8976L24.0237 11.8039L34.1026 6.81128C38.318 4.7231 41.7151 3.04032 44.6424 1.89757Z" fill="#272F43"/>
<path fill-rule="evenodd" clip-rule="evenodd" d="M27.7226 13.6755C28.7295 11.8696 31.0968 11.1761 33.0099 12.1266L78.3386 34.646L96.3763 26.1329C98.31 25.2203 100.661 25.9601 101.628 27.7854C102.595 29.6108 101.811 31.8303 99.8776 32.743L82.2074 41.0826V55.1806C82.2074 57.2214 80.4548 58.8758 78.2928 58.8758C76.1308 58.8758 74.3782 57.2214 74.3782 55.1806V44.7778L57.4148 52.7839V94.9648C57.4148 97.0055 55.6621 98.6599 53.5001 98.6599C51.3381 98.6599 49.5855 97.0055 49.5855 94.9648V52.7839L7.12262 32.743C5.18887 31.8303 4.40507 29.6108 5.37194 27.7854C6.33881 25.9601 8.69023 25.2203 10.624 26.1329L53.5001 46.3689L69.718 38.7146L29.3635 18.6664C27.4503 17.7159 26.7156 15.4814 27.7226 13.6755Z" fill="#272F43"/>
</svg>
