<svg width="68" height="64" viewBox="0 0 68 64" fill="none" xmlns="http://www.w3.org/2000/svg">
<path fill-rule="evenodd" clip-rule="evenodd" d="M26.3076 6.36019C25.5078 5.03816 23.8296 4.63397 22.5902 5.3663L22.5534 5.38762L17.1083 8.48226C15.4623 9.41635 14.8948 11.535 15.8357 13.1537C17.5353 16.0669 18.0086 19.2904 16.4671 21.9471C14.9254 24.604 11.8802 25.8123 8.49607 25.8123C6.59087 25.8123 5.03471 27.372 5.03471 29.2498V34.75C5.03471 36.628 6.59094 38.1877 8.49607 38.1877C11.8802 38.1877 14.9254 39.396 16.4671 42.0529C18.0085 44.7093 17.5353 47.9326 15.8361 50.8456C14.8946 52.4644 15.4621 54.5835 17.1083 55.5177L22.5534 58.6124L22.5902 58.6337C23.8297 59.3661 25.5079 58.9618 26.3077 57.6397L26.6451 57.0608C28.345 54.1482 30.9257 52.1335 34.0118 52.1335C37.1 52.1335 39.6728 54.1494 41.3573 57.065C41.3583 57.0667 41.3593 57.0684 41.3603 57.0701L41.6924 57.6397C42.4921 58.9618 44.1703 59.366 45.4098 58.6337L45.4466 58.6124L50.8917 55.5177C52.5332 54.5862 53.1103 52.4976 52.161 50.8405C50.4641 47.9288 49.9924 44.7078 51.5329 42.0529C53.0746 39.396 56.1198 38.1877 59.5039 38.1877C61.4091 38.1877 62.9653 36.628 62.9653 34.75V29.2498C62.9653 27.3578 61.3949 25.8123 59.5039 25.8123C56.1198 25.8123 53.0746 24.604 51.5329 21.9471C49.9914 19.2904 50.4647 16.0669 52.1643 13.1537C53.1052 11.5349 52.5377 9.41635 50.8917 8.48226L45.4466 5.38762L45.4098 5.3663C44.1703 4.63396 42.4921 5.03817 41.6924 6.36024L41.3543 6.94027C39.6544 9.85287 37.0743 11.8665 33.9882 11.8665C30.8999 11.8665 28.3272 9.85059 26.6426 6.93488C26.6416 6.93322 26.6407 6.93157 26.6397 6.92992L26.3076 6.36019ZM20.0361 1.05727C23.7619 -1.12935 28.4841 0.213951 30.641 3.81449L30.6561 3.84014L31.0077 4.44317C32.1552 6.43122 33.3258 6.86628 33.9882 6.86628C34.6544 6.86628 35.8343 6.42683 36.9977 4.4339C36.9979 4.43354 36.9981 4.43318 36.9984 4.43282L37.3439 3.84013L37.359 3.81449C39.5159 0.21393 44.2381 -1.12936 47.964 1.0573L53.3896 4.14088C53.3897 4.14093 53.3896 4.14083 53.3896 4.14088C57.4701 6.45676 58.8537 11.6502 56.523 15.6564L56.5213 15.6594C55.3583 17.6521 55.5647 18.8811 55.8951 19.4505C56.2258 20.0204 57.1925 20.8121 59.5039 20.8121C64.1581 20.8121 68 24.5791 68 29.2498V34.75C68 39.3724 64.2069 43.1879 59.5039 43.1879C57.1925 43.1879 56.2258 43.9796 55.8951 44.5495C55.5647 45.1189 55.3583 46.3479 56.5213 48.3406L56.5291 48.3539C58.8477 52.3837 57.4733 57.5416 53.3896 59.8591L47.9642 62.9426C44.2383 65.1294 39.516 63.7861 37.359 60.1855L37.3439 60.1599L36.9977 59.5661L36.9923 59.5568C35.8448 57.5688 34.6742 57.1337 34.0118 57.1337C33.3456 57.1337 32.1657 57.5732 31.0023 59.5661L30.6561 60.1599L30.641 60.1855C28.4841 63.7861 23.7617 65.1294 20.0359 62.9426L14.6104 59.8591C14.6102 59.859 14.6106 59.8592 14.6104 59.8591C14.6101 59.859 14.6093 59.8585 14.609 59.8583C10.5294 57.5422 9.14649 52.3495 11.477 48.3436L11.4787 48.3406C12.6417 46.3479 12.4353 45.1189 12.1049 44.5495C11.7742 43.9796 10.8075 43.1879 8.49607 43.1879C3.79314 43.1879 0 39.3724 0 34.75V29.2498C0 24.6274 3.79321 20.8121 8.49607 20.8121C10.8075 20.8121 11.7742 20.0204 12.1049 19.4506C12.4353 18.8811 12.6417 17.6521 11.4787 15.6594L11.477 15.6564C9.14649 11.6505 10.5294 6.45784 14.609 4.14165C14.6091 4.14158 14.6089 4.14172 14.609 4.14165C14.6093 4.14146 14.61 4.14107 14.6104 4.14088L20.0361 1.05727ZM22.0268 32.0003C22.0268 25.4415 27.3802 20.1248 33.9843 20.1248C40.5883 20.1248 45.9417 25.4415 45.9417 32.0003C45.9417 38.559 40.5883 43.8757 33.9843 43.8757C27.3802 43.8757 22.0268 38.559 22.0268 32.0003ZM33.9843 25.125C30.1608 25.125 27.0615 28.203 27.0615 32.0003C27.0615 35.7975 30.1608 38.8755 33.9843 38.8755C37.8077 38.8755 40.907 35.7975 40.907 32.0003C40.907 28.203 37.8077 25.125 33.9843 25.125Z" fill="#292D32"/>
</svg>
