<svg width="90" height="85" viewBox="0 0 90 85" fill="none" xmlns="http://www.w3.org/2000/svg">
<path fill-rule="evenodd" clip-rule="evenodd" d="M16.2975 28.7481C16.2975 25.6984 18.1518 23.1056 20.7397 22.1439V12.4603H7.5C6.28297 12.4603 5.29412 13.4992 5.29412 14.7777V70.396C5.29412 71.6745 6.28297 72.7135 7.5 72.7135H36.1015C37.3198 72.7135 38.3074 73.751 38.3074 75.0309C38.3074 76.3108 37.3198 77.3483 36.1015 77.3483H7.5C3.84644 77.3483 0.882353 74.2344 0.882353 70.396V14.7777C0.882353 10.9394 3.84644 7.8255 7.5 7.8255H20.7397V3.2444C20.7397 1.96451 21.7273 0.926972 22.9456 0.926972C24.1639 0.926972 25.1515 1.96451 25.1515 3.2444V7.8255H45.0044C46.2227 7.8255 47.2103 8.86303 47.2103 10.1429L47.2096 10.2029L47.2103 10.2629V49.8149C49.8199 50.766 51.6931 53.3715 51.6931 56.4372C51.6931 59.5029 49.8201 62.1054 47.2103 63.0556V72.7135H82.5C83.717 72.7135 84.7059 71.6745 84.7059 70.396V14.7777C84.7059 13.4992 83.717 12.4603 82.5 12.4603H53.8279C52.6096 12.4603 51.6221 11.4228 51.6221 10.1429C51.6221 8.86303 52.6096 7.8255 53.8279 7.8255H64.8574V3.28612C64.8574 2.00622 65.8449 0.968686 67.0632 0.968686C68.2815 0.968686 69.2691 2.00622 69.2691 3.28612V7.8255H82.5C86.1536 7.8255 89.1176 10.9394 89.1176 14.7777V70.396C89.1176 74.2344 86.1536 77.3483 82.5 77.3483H47.2103V81.7556C47.2103 83.0355 46.2227 84.073 45.0044 84.073C43.7861 84.073 42.7985 83.0355 42.7985 81.7556V63.0414C40.2106 62.0799 38.3563 59.4872 38.3563 56.4372C38.3563 53.3872 40.2106 50.7917 42.7985 49.8291V12.4603H25.1515V22.13C27.7612 23.0799 29.6343 25.6826 29.6343 28.7481C29.6343 31.8138 27.761 34.4193 25.1515 35.3706V65.6527C25.1515 66.9326 24.1639 67.9701 22.9456 67.9701C21.7273 67.9701 20.7397 66.9326 20.7397 65.6527V35.3565C18.1518 34.3936 16.2975 31.7981 16.2975 28.7481ZM23.0316 31.1202C23.0032 31.1191 22.9745 31.1184 22.9456 31.1184C22.9229 31.1184 22.9001 31.1188 22.8776 31.1195C21.6735 31.0718 20.7093 30.0285 20.7093 28.7481C20.7093 27.4392 21.7182 26.3797 22.9637 26.3797C24.2131 26.3797 25.2225 27.4388 25.2225 28.7481C25.2225 30.0352 24.2482 31.0825 23.0316 31.1202ZM64.8574 49.2611C62.2694 48.2982 60.4151 45.7027 60.4151 42.6527C60.4151 39.6029 62.2694 37.0102 64.8574 36.0485V19.5312C64.8574 18.2513 65.8449 17.2138 67.0632 17.2138C68.2815 17.2138 69.2691 18.2513 69.2691 19.5312V36.0346C71.8789 36.9845 73.7519 39.5872 73.7519 42.6527C73.7519 45.7184 71.8787 48.3239 69.2691 49.2752V65.6527C69.2691 66.9326 68.2815 67.9701 67.0632 67.9701C65.8449 67.9701 64.8574 66.9326 64.8574 65.6527V49.2611ZM69.3401 42.6527C69.3401 41.3433 68.3307 40.2843 67.0813 40.2843C65.8359 40.2843 64.8269 41.3438 64.8269 42.6527C64.8269 43.9634 65.8374 45.0257 67.0813 45.0257C68.3292 45.0257 69.3401 43.9637 69.3401 42.6527ZM47.2813 56.4372C47.2813 55.1262 46.2704 54.0642 45.0225 54.0642C43.7786 54.0642 42.7681 55.1267 42.7681 56.4372C42.7681 57.7463 43.7771 58.8056 45.0225 58.8056C46.2719 58.8056 47.2813 57.7468 47.2813 56.4372Z" fill="#1C2439"/>
<path fill-rule="evenodd" clip-rule="evenodd" d="M22.9456 1.85394C22.2146 1.85394 21.6221 2.47645 21.6221 3.2444V8.75247H7.5C4.33374 8.75247 1.76471 11.4513 1.76471 14.7777V70.396C1.76471 73.7224 4.33375 76.4213 7.5 76.4213H36.1015C36.8325 76.4213 37.425 75.7988 37.425 75.0309C37.425 74.2629 36.8325 73.6404 36.1015 73.6404H7.5C5.79565 73.6404 4.41176 72.1865 4.41176 70.396V14.7777C4.41176 12.9872 5.79565 11.5333 7.5 11.5333H21.6221V22.7993L21.034 23.0178C18.7874 23.8527 17.1799 26.1034 17.1799 28.7481C17.1799 31.3935 18.7878 33.6468 21.0343 34.4827L21.6221 34.7014V65.6527C21.6221 66.4207 22.2146 67.0432 22.9456 67.0432C23.6766 67.0432 24.2691 66.4207 24.2691 65.6527V34.7111L24.8622 34.4949C27.1277 33.669 28.7519 31.407 28.7519 28.7481C28.7519 26.0898 27.1283 23.8305 24.8626 23.0059L24.2691 22.7899V11.5333H43.6809V50.4842L43.093 50.7029C40.8466 51.5385 39.2387 53.7919 39.2387 56.4372C39.2387 59.0822 40.8462 61.3328 43.0927 62.1675L43.6809 62.386V81.7556C43.6809 82.5236 44.2734 83.1461 45.0044 83.1461C45.7354 83.1461 46.3279 82.5236 46.3279 81.7556V76.4213H82.5C85.6663 76.4213 88.2353 73.7224 88.2353 70.396V14.7777C88.2353 11.4513 85.6663 8.75247 82.5 8.75247H68.3868V3.28612C68.3868 2.51817 67.7942 1.89566 67.0632 1.89566C66.3322 1.89566 65.7397 2.51817 65.7397 3.28612V8.75247H53.8279C53.0969 8.75247 52.5044 9.375 52.5044 10.1429C52.5044 10.9108 53.0969 11.5333 53.8279 11.5333H82.5C84.2043 11.5333 85.5882 12.9872 85.5882 14.7777V70.396C85.5882 72.1865 84.2043 73.6404 82.5 73.6404H46.3279V62.3957L46.9214 62.1797C49.1871 61.3548 50.8107 59.0957 50.8107 56.4372C50.8107 53.7784 49.1865 51.5163 46.9211 50.6907L46.3279 50.4745V10.2682L46.3271 10.1921L46.3279 10.1382C46.3256 9.3725 45.734 8.75247 45.0044 8.75247H24.2691V3.2444C24.2691 2.47645 23.6766 1.85394 22.9456 1.85394ZM19.8574 3.2444C19.8574 1.45256 21.24 0 22.9456 0C24.6512 0 26.0338 1.45256 26.0338 3.2444V6.89852H45.0044C46.71 6.89852 48.0926 8.35107 48.0926 10.1429V10.1536L48.092 10.2029L48.0927 10.2629L48.0926 49.1855C50.7332 50.4209 52.5754 53.2018 52.5754 56.4372C52.5754 59.6729 50.7332 62.451 48.0926 63.6852V71.7865H82.5C83.2297 71.7865 83.8235 71.1626 83.8235 70.396V14.7777C83.8235 14.0111 83.2297 13.3873 82.5 13.3873H53.8279C52.1223 13.3873 50.7397 11.9347 50.7397 10.1429C50.7397 8.35107 52.1223 6.89852 53.8279 6.89852H63.975V3.28612C63.975 1.49428 65.3576 0.041714 67.0632 0.041714C68.7689 0.041714 70.1515 1.49428 70.1515 3.28612V6.89852H82.5C86.6409 6.89852 90 10.4274 90 14.7777V70.396C90 74.7463 86.6409 78.2753 82.5 78.2753H48.0926V81.7556C48.0926 83.5475 46.71 85 45.0044 85C43.2988 85 41.9162 83.5475 41.9162 81.7556V63.667C39.2978 62.4237 37.474 59.6562 37.474 56.4372C37.474 53.2184 39.2976 50.4484 41.9162 49.2038V13.3873H26.0338V21.5003C28.6744 22.7344 30.5166 25.5127 30.5166 28.7481C30.5166 31.9836 28.6743 34.7644 26.0338 36V65.6527C26.0338 67.4446 24.6512 68.8971 22.9456 68.8971C21.24 68.8971 19.8574 67.4446 19.8574 65.6527V35.9817C17.2388 34.737 15.4151 31.9669 15.4151 28.7481C15.4151 25.5293 17.239 22.7618 19.8574 21.5184V13.3873H7.5C6.77029 13.3873 6.17647 14.0111 6.17647 14.7777V70.396C6.17647 71.1626 6.77029 71.7865 7.5 71.7865H36.1015C37.8071 71.7865 39.1897 73.239 39.1897 75.0309C39.1897 76.8228 37.8071 78.2753 36.1015 78.2753H7.5C3.35913 78.2753 0 74.7463 0 70.396V14.7777C0 10.4274 3.35915 6.89852 7.5 6.89852H19.8574V3.2444ZM67.0632 18.1408C66.3322 18.1408 65.7397 18.7633 65.7397 19.5312V36.7038L65.1516 36.9224C62.905 37.7573 61.2975 40.008 61.2975 42.6527C61.2975 45.298 62.9054 47.5514 65.1519 48.3873L65.7397 48.606V65.6527C65.7397 66.4207 66.3322 67.0432 67.0632 67.0432C67.7942 67.0432 68.3868 66.4207 68.3868 65.6527V48.6157L68.9799 48.3995C71.2453 47.5736 72.8696 45.3115 72.8696 42.6527C72.8696 39.9944 71.2459 37.7351 68.9803 36.9105L68.3868 36.6944V19.5312C68.3868 18.7633 67.7942 18.1408 67.0632 18.1408ZM63.975 19.5312C63.975 17.7394 65.3576 16.2868 67.0632 16.2868C68.7689 16.2868 70.1515 17.7394 70.1515 19.5312V35.4049C72.792 36.6389 74.6343 39.4173 74.6343 42.6527C74.6343 45.8881 72.792 48.669 70.1515 49.9046V65.6527C70.1515 67.4446 68.7689 68.8971 67.0632 68.8971C65.3576 68.8971 63.975 67.4446 63.975 65.6527V49.8863C61.3565 48.6415 59.5328 45.8715 59.5328 42.6527C59.5328 39.4339 61.3566 36.6664 63.975 35.423V19.5312ZM22.9637 27.3067C22.2054 27.3067 21.5916 27.9513 21.5916 28.7481C21.5916 29.5208 22.1672 30.1503 22.8868 30.192C22.9054 30.1917 22.9251 30.1914 22.9456 30.1914C22.9747 30.1914 23.0029 30.1919 23.0299 30.1927C23.7594 30.1566 24.3401 29.5239 24.3401 28.7481C24.3401 27.9522 23.7272 27.3067 22.9637 27.3067ZM19.8269 28.7481C19.8269 26.9272 21.231 25.4527 22.9637 25.4527C24.6989 25.4527 26.1049 26.9253 26.1049 28.7481C26.1049 30.5379 24.7498 31.9943 23.0577 32.0468L23.0276 32.0477L22.9974 32.0465C22.9857 32.046 22.9748 32.0457 22.9646 32.0455C22.958 32.0454 22.9517 32.0453 22.9456 32.0453C22.9341 32.0453 22.9204 32.0456 22.9036 32.0461L22.874 32.047L22.8444 32.0458C21.1668 31.9793 19.8269 30.5275 19.8269 28.7481ZM63.9446 42.6527C63.9446 40.8317 65.3487 39.3573 67.0813 39.3573C68.8166 39.3573 70.2225 40.8299 70.2225 42.6527C70.2225 44.4756 68.8165 45.9527 67.0813 45.9527C65.3488 45.9527 63.9446 44.474 63.9446 42.6527ZM67.0813 41.2112C66.3231 41.2112 65.7093 41.8559 65.7093 42.6527C65.7093 43.4528 66.326 44.0988 67.0813 44.0988C67.8419 44.0988 68.4578 43.4517 68.4578 42.6527C68.4578 41.8568 67.8449 41.2112 67.0813 41.2112ZM41.8857 56.4372C41.8857 54.6162 43.29 53.1372 45.0225 53.1372C46.7577 53.1372 48.1637 54.6143 48.1637 56.4372C48.1637 58.2603 46.7577 59.7326 45.0225 59.7326C43.2899 59.7326 41.8857 58.2585 41.8857 56.4372ZM45.0225 54.9911C44.2673 54.9911 43.6504 55.6372 43.6504 56.4372C43.6504 57.2342 44.2642 57.8787 45.0225 57.8787C45.7861 57.8787 46.399 57.2333 46.399 56.4372C46.399 55.6382 45.7831 54.9911 45.0225 54.9911Z" fill="#1C2439"/>
</svg>
