<?xml version="1.0" encoding="UTF-8"?>
<svg id="Layer_2" data-name="Layer 2" xmlns="http://www.w3.org/2000/svg" viewBox="0 0 234.33 72.62">
  <defs>
    <style>
      .cls-1 {
        fill: #ee2561;
      }

      .cls-2 {
        fill: #00aad0;
      }
    </style>
  </defs>
  <g id="Layer_1-2" data-name="Layer 1">
    <g>
      <g>
        <path class="cls-1" d="M45.89,52.12v19.01c0,.57-.46,1.02-1.02,1.02h-4.43c-.57,0-1.02-.46-1.02-1.02v-18.97c0-2.33-.6-4.13-1.81-5.41-1.21-1.27-2.9-1.9-5.09-1.9-2.01,0-3.57.61-4.67,1.84-1.1,1.23-1.65,2.96-1.65,5.19v19.25c0,.57-.46,1.02-1.02,1.02h-4.43c-.57,0-1.02-.46-1.02-1.02v-18.97c0-2.33-.57-4.13-1.72-5.41-1.14-1.27-2.76-1.9-4.86-1.9s-3.76.56-4.91,1.68c-1.16,1.12-1.73,2.7-1.73,4.74v19.86c0,.57-.46,1.02-1.02,1.02H1.02c-.57,0-1.02-.46-1.02-1.02v-30.94c0-.57.46-1.02,1.02-1.02h4.44c.57,0,1.02.46,1.02,1.02v.67c0,.9,1.09,1.36,1.73.73.49-.48,1.02-.91,1.59-1.29,1.64-1.08,3.46-1.62,5.45-1.62,2.31,0,4.28.53,5.91,1.58,1.63,1.04,2.87,2.58,3.73,4.59.05.12.1.25.15.38,1.01-2.04,2.34-3.61,3.95-4.75,1.71-1.2,3.59-1.8,5.64-1.8,2.38,0,4.4.53,6.09,1.58,1.68,1.04,2.96,2.58,3.84,4.59s1.32,4.44,1.32,7.27Z"/>
        <path class="cls-1" d="M79.01,44.32c-1.02-1.83-2.5-3.23-4.45-4.19-1.95-.97-4.29-1.45-7.03-1.45-2.5,0-4.77.42-6.81,1.26-1.62.66-2.98,1.53-4.1,2.61-.46.44-.4,1.21.13,1.57l3.18,2.18c.34.24.79.22,1.14,0,.83-.53,1.76-.96,2.78-1.29,1.26-.41,2.55-.61,3.86-.61,2.12,0,3.76.6,4.91,1.8,1.16,1.2,1.74,2.87,1.74,5.04v1.39h-9.09c-3.73,0-6.52.82-8.36,2.45-1.84,1.63-2.77,4.08-2.77,7.34,0,3.43,1.01,5.99,3.02,7.68,2.02,1.68,5.06,2.52,9.12,2.52,1.38,0,2.62-.14,3.72-.43,1.1-.28,2.07-.71,2.91-1.28.54-.37,1.03-.81,1.45-1.32v1.55c0,.56.45,1.01,1.01,1.01h4.14c.56,0,1.01-.45,1.01-1.01v-20.19c0-2.59-.51-4.79-1.52-6.63ZM72.54,66.55c-1.22.53-3.07.8-5.55.8-2.26,0-3.95-.41-5.07-1.21-1.11-.81-1.66-2.05-1.66-3.72,0-1.55.41-2.69,1.25-3.45.84-.75,2.1-1.13,3.8-1.13h8.05c.56,0,1.01.45,1.01,1.01v5.22c0,1.13-.61,1.95-1.83,2.48Z"/>
        <path class="cls-1" d="M96.56,72.05c-1.71-.38-3.3-.95-4.78-1.72-1.2-.61-2.32-1.35-3.36-2.22-.42-.35-.47-.98-.12-1.41l2.62-3.23c.34-.42.94-.49,1.39-.18,1.52,1.07,3.03,1.9,4.53,2.48,1.76.68,3.5,1.02,5.21,1.02,2.56,0,4.49-.4,5.77-1.19,1.28-.79,1.92-1.99,1.92-3.58,0-1.06-.35-1.85-1.05-2.38-.7-.53-1.57-.88-2.61-1.06-1.04-.18-2.5-.34-4.39-.49-.17,0-.35,0-.54-.02-.19-.01-.37-.03-.54-.05-.08,0-.17,0-.25-.02-.08-.01-.17-.02-.25-.02-2.14-.17-3.95-.48-5.43-.94-1.48-.46-2.72-1.31-3.7-2.56-.98-1.25-1.48-3.04-1.48-5.37s.48-4.27,1.43-5.82c.95-1.55,2.37-2.71,4.26-3.48,1.89-.77,4.25-1.16,7.09-1.16,1.72,0,3.35.16,4.91.48,1.56.32,3.05.79,4.46,1.41,1.09.48,2.16,1.06,3.19,1.74.5.33.59,1.02.21,1.48l-2.64,3.2c-.32.39-.88.47-1.31.21-1.39-.83-2.77-1.47-4.13-1.92-1.6-.53-3.16-.79-4.69-.79-2.2,0-3.86.38-4.96,1.13s-1.65,1.88-1.65,3.38c0,.89.31,1.56.94,2,.62.44,1.41.74,2.37.89.95.15,2.31.28,4.07.38.13.02.26.03.4.03s.28.01.43.03h.19c.06,0,.13.01.19.03,2.31.15,4.27.46,5.9.92,1.62.47,2.98,1.39,4.08,2.76,1.1,1.38,1.65,3.37,1.65,5.97,0,2.37-.51,4.34-1.53,5.9-1.02,1.56-2.55,2.73-4.59,3.51-2.04.78-4.61,1.18-7.71,1.18-1.95,0-3.78-.19-5.48-.57Z"/>
        <path class="cls-1" d="M131.47,36.8v1.72c0,.36.29.64.64.64h3.7c.36,0,.64.29.64.64v4.56c0,.36-.29.64-.64.64h-3.7c-.36,0-.64.29-.64.64v17.98c0,.8.16,1.42.48,1.86.32.43.78.65,1.4.65h2.47c.36,0,.64.29.64.64v4.87c0,.36-.29.64-.64.64h-3.11c-2.67,0-4.62-.73-5.86-2.2-1.24-1.48-1.86-3.65-1.86-6.53v-17.92c0-.36-.29-.64-.64-.64h-2.11c-.36,0-.64-.29-.64-.64v-4.56c0-.36.29-.64.64-.64h2.11c.36,0,.64-.29.64-.64v-4.81c0-3.95,3.2-7.15,7.15-7.15h101.3c.36,0,.64.29.64.64v1.66c0,.36-.29.64-.64.64h-94.68c-4.03,0-7.29,3.26-7.29,7.29Z"/>
        <path class="cls-1" d="M150.67,70.94c-2.03-1.12-3.59-2.76-4.66-4.91s-1.6-4.74-1.6-7.77v-5.37c0-2.99.53-5.55,1.6-7.67,1.07-2.13,2.62-3.75,4.66-4.86s4.48-1.67,7.34-1.67,5.31.56,7.34,1.67,3.59,2.73,4.66,4.86c1.07,2.13,1.6,4.69,1.6,7.67v5.47c0,3.01-.54,5.58-1.6,7.71-1.07,2.13-2.62,3.76-4.66,4.88-2.03,1.12-4.48,1.68-7.34,1.68s-5.31-.56-7.34-1.68ZM163.27,64.33c1.24-1.42,1.86-3.41,1.86-5.97v-5.47c0-2.56-.62-4.54-1.86-5.94-1.24-1.4-2.99-2.1-5.26-2.1s-4.02.7-5.26,2.1c-1.24,1.4-1.86,3.38-1.86,5.94v5.47c0,2.56.62,4.56,1.86,5.97s2.99,2.13,5.26,2.13,4.02-.71,5.26-2.13Z"/>
        <path class="cls-1" d="M202.62,42.04l-2.93,3.96c-.35.47-1.03.59-1.48.22-.41-.34-.88-.62-1.4-.83-.87-.36-1.88-.54-3.02-.54-2.06,0-3.65.56-4.78,1.7-1.14,1.13-1.7,2.7-1.7,4.72v19.86c0,.56-.46,1.02-1.02,1.02h-4.45c-.56,0-1.02-.46-1.02-1.02v-30.95c0-.56.46-1.02,1.02-1.02h4.45c.56,0,1.02.46,1.02,1.02v.69c0,.92,1.1,1.34,1.76.7s1.4-1.21,2.19-1.67c1.51-.87,3.27-1.25,5.01-1.21,1.36.03,2.6.25,3.73.65.88.32,1.68.74,2.41,1.27.46.34.56.98.22,1.44Z"/>
        <path class="cls-1" d="M214.78,72.05c-1.71-.38-3.3-.95-4.78-1.72-1.2-.61-2.32-1.35-3.36-2.22-.42-.35-.47-.98-.12-1.4l2.62-3.23c.34-.42.94-.49,1.39-.18,1.52,1.07,3.03,1.9,4.53,2.48,1.76.68,3.5,1.02,5.21,1.02,2.56,0,4.49-.4,5.77-1.19,1.28-.79,1.92-1.99,1.92-3.58,0-1.06-.35-1.85-1.05-2.38-.7-.53-1.57-.88-2.61-1.06-1.04-.18-2.5-.34-4.39-.49-.17,0-.35,0-.54-.02-.19-.01-.37-.03-.54-.05-.08,0-.17,0-.25-.02-.08-.01-.17-.02-.25-.02-2.14-.17-3.95-.48-5.43-.94-1.48-.46-2.72-1.31-3.7-2.56-.99-1.25-1.48-3.04-1.48-5.37s.48-4.27,1.43-5.82c.95-1.55,2.37-2.71,4.26-3.48,1.89-.77,4.25-1.16,7.09-1.16,1.72,0,3.35.16,4.91.48,1.56.32,3.04.79,4.46,1.41,1.09.48,2.16,1.06,3.19,1.74.5.33.59,1.02.21,1.48l-2.64,3.2c-.32.39-.88.47-1.31.21-1.39-.83-2.77-1.47-4.13-1.92-1.6-.53-3.16-.79-4.69-.79-2.2,0-3.86.38-4.96,1.13-1.1.75-1.65,1.88-1.65,3.38,0,.89.31,1.56.94,2s1.41.74,2.37.89c.95.15,2.31.28,4.07.38.13.02.26.03.4.03s.28.01.43.03h.19c.06,0,.13.01.19.03,2.31.15,4.27.46,5.89.92,1.62.47,2.98,1.39,4.08,2.76,1.1,1.38,1.65,3.37,1.65,5.97,0,2.37-.51,4.34-1.53,5.9-1.02,1.56-2.55,2.73-4.59,3.51-2.04.78-4.61,1.18-7.71,1.18-1.95,0-3.78-.19-5.48-.57Z"/>
      </g>
      <g>
        <g>
          <path class="cls-2" d="M193.9,15.08c-.95,3.2-3.32,5.62-7.58,5.62-5.8,0-8.85-4.61-8.85-10.29s3-10.41,8.88-10.41c4.35,0,6.92,2.42,7.58,5.8h-1.01c-.33,0-.61-.21-.74-.51-.96-2.34-2.66-3.85-5.92-3.85-5.02,0-7.12,4.58-7.12,8.94s2.08,8.88,7.24,8.88c3.07,0,4.73-1.49,5.76-3.71.13-.28.41-.48.72-.48h1.04Z"/>
          <path class="cls-2" d="M198.26,1.08c0-.44.36-.79.79-.79h5.9c5.54,0,9.37,3.86,9.37,9.92s-3.75,10.27-9.4,10.27h-5.87c-.44,0-.79-.36-.79-.79V1.08ZM199.81,18.24c0,.44.36.79.79.79h4.08c5.33,0,7.96-3.75,7.96-8.74,0-4.44-2.36-8.56-7.96-8.56h-4.08c-.44,0-.79.36-.79.79v15.72Z"/>
          <path class="cls-2" d="M218.76,19.68V1.08c0-.44.36-.79.79-.79h1.08c.27,0,.52.13.66.36,3.26,5.02,10.32,15.82,11.56,17.95h.03c-.17-2.91-.14-5.88-.14-9.17V1.08c0-.44.36-.79.79-.79h0c.44,0,.79.36.79.79v18.6c0,.44-.36.79-.79.79h-.91c-.27,0-.52-.13-.66-.36-3.14-4.89-10.3-16.1-11.71-18.27h-.03c.14,2.65.12,5.59.12,9.26v8.58c0,.44-.36.79-.79.79h0c-.44,0-.79-.36-.79-.79Z"/>
        </g>
        <ellipse class="cls-2" cx="158.01" cy="55.65" rx="3.62" ry="5.06"/>
      </g>
    </g>
  </g>
</svg>